<svg width="38" height="36" viewBox="0 0 38 36" fill="none" xmlns="http://www.w3.org/2000/svg">
<path d="M3.57153 1H34.429C35.7622 1.00023 36.8567 2.09542 36.8567 3.42871V16.873C36.3945 16.5427 35.9159 16.2481 35.429 15.998V5.85742H2.57153V31.8574H17.0696C17.235 32.3353 17.4339 32.8149 17.675 33.2861H3.57153C2.2382 33.2861 1.14297 32.1907 1.14282 30.8574V3.42871C1.14282 2.09528 2.2381 1 3.57153 1ZM29.2854 23.8574C27.3618 23.8576 25.7141 25.5051 25.7141 27.4287C25.7142 29.3523 27.3619 30.9998 29.2854 31C31.2091 31 32.8566 29.3524 32.8567 27.4287C32.8567 25.505 31.2091 23.8574 29.2854 23.8574ZM24.2854 26.2334L23.8743 25.9346L22.3899 24.8545L23.5452 22.8906L25.1292 23.5518L25.6233 23.7578L26.0686 23.4609C26.3037 23.3042 26.4999 23.1862 26.7141 23.0576C26.9283 22.9291 27.1616 22.7895 27.4407 22.6035L27.8069 22.3594L27.8743 21.9238L28.1389 20.2002H30.6038L30.8684 21.9238L30.9612 22.5273L31.5413 22.7197C31.9033 22.8405 32.3005 23.098 32.845 23.4609L33.2903 23.7578L33.7844 23.5518L35.3684 22.8906L36.5237 24.8545L35.0403 25.9346L34.6282 26.2334V28.9668L35.0403 29.2656L36.3333 30.2061L35.179 32.167L33.5452 31.623L33.0803 31.4678L32.6741 31.7393C32.4389 31.8961 32.2429 32.014 32.0286 32.1426C31.8144 32.2711 31.581 32.4107 31.302 32.5967L30.9358 32.8408L30.8684 33.2764L30.6038 35H28.1389L27.8743 33.2764L27.7815 32.6729L27.2024 32.4795L27.0696 32.4297C26.7579 32.2997 26.4364 32.0797 26.2209 31.8643L25.7483 31.3906L25.1292 31.6484L23.5452 32.3086L22.3899 30.3447L23.8743 29.2656L24.2854 28.9668V26.2334Z" fill="#203FFC" stroke="url(#paint0_linear_254_1261)" stroke-width="2"/>
<defs>
<linearGradient id="paint0_linear_254_1261" x1="6.70183" y1="7.5" x2="40.5276" y2="28.1522" gradientUnits="userSpaceOnUse">
<stop stop-color="#9AA8FF"/>
<stop offset="1" stop-color="#203FFC"/>
</linearGradient>
</defs>
</svg>
