<svg width="32" height="32" viewBox="0 0 32 32" fill="none" xmlns="http://www.w3.org/2000/svg">
<path d="M1.625 1.375H30.375C30.5141 1.375 30.625 1.48588 30.625 1.625V30.375C30.625 30.5141 30.5141 30.625 30.375 30.625H1.625C1.48588 30.625 1.375 30.5141 1.375 30.375V1.625C1.375 1.48588 1.48588 1.375 1.625 1.375ZM2.1875 29.8125H29.8125V2.1875H2.1875V29.8125ZM22.9688 21.1016V21.6016H17.1562V21.1016H22.9688ZM14.7725 15.998L9.03125 20.8115V20.1621L13.0762 16.7656L13.9883 16L13.0762 15.2344L9.03125 11.8369V11.1865L14.7725 15.998Z" fill="#203FFC" stroke="url(#paint0_linear_280_4560)" stroke-width="2"/>
<defs>
<linearGradient id="paint0_linear_280_4560" x1="5.80978" y1="6.88542" x2="34.5307" y2="23.6237" gradientUnits="userSpaceOnUse">
<stop stop-color="#9AA8FF"/>
<stop offset="1" stop-color="#203FFC"/>
</linearGradient>
</defs>
</svg>
