<svg width="17" height="17" viewBox="0 0 17 17" fill="none" xmlns="http://www.w3.org/2000/svg">
<path d="M8.5 11.6922C8.36667 11.6922 8.24167 11.6715 8.125 11.6302C8.00833 11.5889 7.9 11.5179 7.8 11.4172L4.2 7.81719C4 7.61719 3.904 7.38386 3.912 7.11719C3.92 6.85052 4.016 6.61719 4.2 6.41719C4.4 6.21719 4.63767 6.11319 4.913 6.10519C5.18833 6.09719 5.42567 6.19286 5.625 6.39219L7.5 8.26719V1.11719C7.5 0.833858 7.596 0.596524 7.788 0.405191C7.98 0.213858 8.21733 0.117858 8.5 0.117191C8.78267 0.116524 9.02033 0.212524 9.213 0.405191C9.40567 0.597858 9.50133 0.835191 9.5 1.11719V8.26719L11.375 6.39219C11.575 6.19219 11.8127 6.09619 12.088 6.10419C12.3633 6.11219 12.6007 6.21652 12.8 6.41719C12.9833 6.61719 13.0793 6.85052 13.088 7.11719C13.0967 7.38386 13.0007 7.61719 12.8 7.81719L9.2 11.4172C9.1 11.5172 8.99167 11.5882 8.875 11.6302C8.75833 11.6722 8.63333 11.6929 8.5 11.6922ZM2.5 16.1172C1.95 16.1172 1.47933 15.9215 1.088 15.5302C0.696666 15.1389 0.500667 14.6679 0.5 14.1172V12.1172C0.5 11.8339 0.596 11.5965 0.788 11.4052C0.98 11.2139 1.21733 11.1179 1.5 11.1172C1.78267 11.1165 2.02033 11.2125 2.213 11.4052C2.40567 11.5979 2.50133 11.8352 2.5 12.1172V14.1172H14.5V12.1172C14.5 11.8339 14.596 11.5965 14.788 11.4052C14.98 11.2139 15.2173 11.1179 15.5 11.1172C15.7827 11.1165 16.0203 11.2125 16.213 11.4052C16.4057 11.5979 16.5013 11.8352 16.5 12.1172V14.1172C16.5 14.6672 16.3043 15.1382 15.913 15.5302C15.5217 15.9222 15.0507 16.1179 14.5 16.1172H2.5Z" fill="white"/>
</svg>
