<svg width="24" height="29" viewBox="0 0 24 29" fill="none" xmlns="http://www.w3.org/2000/svg">
<path d="M12.0005 7.80078C12.9233 7.8009 13.8079 8.16781 14.4604 8.82031C15.1131 9.47294 15.48 10.3583 15.48 11.2812C15.4799 12.204 15.113 13.0887 14.4604 13.7412C13.8079 14.3937 12.9233 14.7606 12.0005 14.7607C11.0775 14.7607 10.1922 14.3938 9.53955 13.7412C8.88705 13.0887 8.52014 12.204 8.52002 11.2812C8.52002 10.3583 8.88692 9.47294 9.53955 8.82031C10.1922 8.16769 11.0775 7.80078 12.0005 7.80078Z" stroke="url(#paint0_linear_287_5612)" stroke-width="2"/>
<path d="M12.0002 1.07812C14.7052 1.07818 17.2994 2.15279 19.2122 4.06543C21.125 5.9783 22.2004 8.57311 22.2004 11.2783C22.2004 16.2439 19.5927 20.2061 16.885 22.9785C15.5375 24.3582 14.1866 25.4197 13.1731 26.1357C12.6921 26.4755 12.2884 26.7355 12.0002 26.9141C11.7121 26.7355 11.3085 26.4756 10.8274 26.1357C9.81386 25.4197 8.46308 24.3583 7.11548 22.9785C4.40775 20.2061 1.80012 16.244 1.80005 11.2783C1.80005 8.57311 2.87448 5.9783 4.78735 4.06543C6.70022 2.15256 9.29504 1.07813 12.0002 1.07812Z" stroke="url(#paint1_linear_287_5612)" stroke-width="2"/>
<defs>
<linearGradient id="paint0_linear_287_5612" x1="9.07828" y1="8.66745" x2="14.031" y2="12.5435" gradientUnits="userSpaceOnUse">
<stop stop-color="#9AA8FF"/>
<stop offset="1" stop-color="#203FFC"/>
</linearGradient>
<linearGradient id="paint1_linear_287_5612" x1="4.6957" y1="5.91146" x2="19.0387" y2="14.8914" gradientUnits="userSpaceOnUse">
<stop stop-color="#9AA8FF"/>
<stop offset="1" stop-color="#203FFC"/>
</linearGradient>
</defs>
</svg>
