<svg width="24" height="28" viewBox="0 0 24 28" fill="none" xmlns="http://www.w3.org/2000/svg">
<path d="M12.0005 7.72656C12.9233 7.72669 13.8079 8.09359 14.4604 8.74609C15.1131 9.39872 15.48 10.2841 15.48 11.207C15.4799 12.1298 15.113 13.0145 14.4604 13.667C13.8079 14.3195 12.9233 14.6864 12.0005 14.6865C11.0775 14.6865 10.1922 14.3196 9.53955 13.667C8.88705 13.0145 8.52014 12.1298 8.52002 11.207C8.52002 10.2841 8.88692 9.39872 9.53955 8.74609C10.1922 8.09347 11.0775 7.72656 12.0005 7.72656Z" stroke="url(#paint0_linear_153_6808)" stroke-width="2"/>
<path d="M12.0002 1.00391C14.7052 1.00396 17.2994 2.07857 19.2122 3.99121C21.125 5.90408 22.2004 8.49889 22.2004 11.2041C22.2004 16.1697 19.5927 20.1319 16.885 22.9043C15.5375 24.284 14.1866 25.3455 13.1731 26.0615C12.6921 26.4013 12.2884 26.6613 12.0002 26.8398C11.7121 26.6613 11.3085 26.4014 10.8274 26.0615C9.81386 25.3455 8.46308 24.2841 7.11548 22.9043C4.40775 20.1319 1.80012 16.1698 1.80005 11.2041C1.80005 8.49889 2.87448 5.90408 4.78735 3.99121C6.70022 2.07834 9.29504 1.00391 12.0002 1.00391Z" stroke="url(#paint1_linear_153_6808)" stroke-width="2"/>
<defs>
<linearGradient id="paint0_linear_153_6808" x1="9.07828" y1="8.59323" x2="14.031" y2="12.4692" gradientUnits="userSpaceOnUse">
<stop stop-color="#9AA8FF"/>
<stop offset="1" stop-color="#203FFC"/>
</linearGradient>
<linearGradient id="paint1_linear_153_6808" x1="4.6957" y1="5.83724" x2="19.0387" y2="14.8172" gradientUnits="userSpaceOnUse">
<stop stop-color="#9AA8FF"/>
<stop offset="1" stop-color="#203FFC"/>
</linearGradient>
</defs>
</svg>
