<svg width="30" height="29" viewBox="0 0 30 29" fill="none" xmlns="http://www.w3.org/2000/svg">
<path d="M17.8076 1.07812C18.3399 1.07813 18.8638 1.21303 19.3301 1.46973C19.7964 1.72646 20.1909 2.09707 20.4756 2.54688C20.76 2.99652 20.9256 3.51092 20.958 4.04199C20.9904 4.57323 20.8879 5.10395 20.6602 5.58496L19.9844 7.01367H28.4961C28.5458 7.01367 28.5937 7.03321 28.6289 7.06836C28.6641 7.10352 28.6836 7.15144 28.6836 7.20117V12.1992C28.3234 12.1443 27.9573 12.126 27.5908 12.1484C26.7231 12.2017 25.883 12.4735 25.1484 12.9385C24.4139 13.4036 23.8079 14.0469 23.3887 14.8086C22.9696 15.5702 22.75 16.4256 22.75 17.2949C22.75 18.1643 22.9695 19.0197 23.3887 19.7812C23.8079 20.5429 24.4139 21.1863 25.1484 21.6514C25.8829 22.1163 26.7232 22.3882 27.5908 22.4414C27.9574 22.4639 28.3233 22.4436 28.6836 22.3887V27.3887C28.6835 27.4383 28.664 27.4864 28.6289 27.5215C28.5938 27.5565 28.5457 27.5762 28.4961 27.5762H7.12109C7.07144 27.5761 7.02339 27.5566 6.98828 27.5215C6.95317 27.4864 6.93364 27.4383 6.93359 27.3887V19.4727L5.50586 20.1475C5.02481 20.375 4.49406 20.4779 3.96289 20.4453C3.4318 20.4127 2.91735 20.2465 2.46777 19.9619C2.01812 19.6772 1.64824 19.2826 1.3916 18.8164C1.13503 18.3502 1.00003 17.827 1 17.2949C1 16.7627 1.13497 16.2387 1.3916 15.7725C1.64823 15.3064 2.01825 14.9125 2.46777 14.6279C2.91738 14.3433 3.43175 14.1771 3.96289 14.1445C4.49396 14.112 5.02488 14.2139 5.50586 14.4414L6.93359 15.1172V7.20117C6.93359 7.15154 6.95324 7.10351 6.98828 7.06836C7.02339 7.03325 7.07144 7.01373 7.12109 7.01367H15.6318L14.9561 5.58496C14.7283 5.10394 14.6248 4.57323 14.6572 4.04199C14.6897 3.51088 14.8562 2.99654 15.1406 2.54688C15.4253 2.09707 15.8198 1.72646 16.2861 1.46973C16.7523 1.21312 17.2755 1.0782 17.8076 1.07812Z" stroke="url(#paint0_linear_287_5675)" stroke-width="2"/>
<defs>
<linearGradient id="paint0_linear_287_5675" x1="5.1624" y1="6.01518" x2="21.0573" y2="18.9724" gradientUnits="userSpaceOnUse">
<stop stop-color="#9AA8FF"/>
<stop offset="1" stop-color="#203FFC"/>
</linearGradient>
</defs>
</svg>
