<!-- Scottish Rite Children's Medical Center Logo -->
<svg width="160" height="80" viewBox="0 0 160 80" fill="none" xmlns="http://www.w3.org/2000/svg">
  <g>
    <!-- Children's hand silhouettes -->
    <path d="M15 35 Q20 30 25 35 Q30 32 35 37 Q25 42 20 40 Q15 42 15 35" fill="#f59e0b"/>
    <path d="M20 45 Q25 40 30 45 Q35 42 40 47 Q30 52 25 50 Q20 52 20 45" fill="#10b981"/>
    <path d="M25 55 Q30 50 35 55 Q40 52 45 57 Q35 62 30 60 Q25 62 25 55" fill="#3b82f6"/>
    
    <!-- Medical cross -->
    <rect x="52" y="20" width="3" height="12" fill="#dc2626"/>
    <rect x="48" y="24" width="11" height="3" fill="#dc2626"/>
    
    <!-- Text -->
    <text x="65" y="25" fill="#1e40af" font-family="Arial, sans-serif" font-size="11" font-weight="bold">SCOTTISH RITE</text>
    <text x="65" y="40" fill="#1e40af" font-family="Arial, sans-serif" font-size="10" font-weight="600">Children's Medical Center</text>
    
    <!-- Decorative element -->
    <circle cx="140" cy="40" r="8" fill="#f59e0b" opacity="0.2"/>
    <path d="M135 40 L140 35 L145 40 L140 45 Z" fill="#f59e0b"/>
  </g>
</svg>
