<svg width="29" height="31" viewBox="0 0 29 31" fill="none" xmlns="http://www.w3.org/2000/svg">
<path d="M14.25 1.07812C14.2813 1.07812 14.3123 1.08561 14.3398 1.10059L27.4023 8.25293C27.4317 8.26901 27.4565 8.29254 27.4736 8.32129C27.4822 8.33563 27.4887 8.35125 27.4932 8.36719L27.5 8.41699V22.6113C27.4995 22.644 27.4903 22.676 27.4736 22.7041C27.4651 22.7185 27.4544 22.7316 27.4424 22.7432L27.4023 22.7734L15.25 29.4258V14.0781H13.25V29.4258L1.09766 22.7734C1.0682 22.7573 1.04352 22.733 1.02637 22.7041C1.0178 22.6897 1.01125 22.6742 1.00684 22.6582L1 22.6094V8.41699C1.00008 8.38342 1.00922 8.35015 1.02637 8.32129C1.03498 8.30684 1.04559 8.29378 1.05762 8.28223L1.09766 8.25293L14.1592 1.10059L14.1602 1.10156C14.1877 1.08646 14.2185 1.07812 14.25 1.07812Z" stroke="url(#paint0_linear_287_5678)" stroke-width="2"/>
<mask id="path-2-inside-1_287_5678" fill="white">
<path d="M0.103516 7.92969L14.2496 15.6722L28.3957 7.92969"/>
</mask>
<path d="M14.2496 15.6722L13.2894 17.4266L14.2496 17.9522L15.2098 17.4266L14.2496 15.6722ZM0.103516 7.92969L-0.856716 9.6841L13.2894 17.4266L14.2496 15.6722L15.2098 13.9178L1.06375 6.17528L0.103516 7.92969ZM14.2496 15.6722L15.2098 17.4266L29.3559 9.6841L28.3957 7.92969L27.4355 6.17528L13.2894 13.9178L14.2496 15.6722Z" fill="url(#paint1_linear_287_5678)" mask="url(#path-2-inside-1_287_5678)"/>
<defs>
<linearGradient id="paint0_linear_287_5678" x1="4.95652" y1="6.50986" x2="21.6469" y2="18.5682" gradientUnits="userSpaceOnUse">
<stop stop-color="#9AA8FF"/>
<stop offset="1" stop-color="#203FFC"/>
</linearGradient>
<linearGradient id="paint1_linear_287_5678" x1="5.0239" y1="9.54271" x2="7.77137" y2="17.3998" gradientUnits="userSpaceOnUse">
<stop stop-color="#9AA8FF"/>
<stop offset="1" stop-color="#203FFC"/>
</linearGradient>
</defs>
</svg>
