<svg width="43" height="38" viewBox="0 0 43 38" fill="none" xmlns="http://www.w3.org/2000/svg">
<path d="M5.5918 18.4736C6.0045 18.4737 6.40317 18.6371 6.69629 18.9307L10.2285 22.4688L10.335 22.5869C10.834 23.1997 10.7967 24.1028 10.2266 24.6729C9.61802 25.2804 8.6312 25.2815 8.02246 24.6729H8.02148L5.5918 22.2383L3.16113 24.6729C2.55246 25.2815 1.56569 25.2807 0.957031 24.6729H0.956055C0.347443 24.0641 0.348267 23.0773 0.956055 22.4688L4.49023 18.9307L4.50684 18.9131L4.52637 18.8975L4.6875 18.7656L4.70703 18.75L4.72754 18.7363C4.98191 18.5666 5.28214 18.4738 5.5918 18.4736ZM32.7598 13.3398C33.3697 12.7317 34.3564 12.7341 34.9639 13.3428L37.3916 15.7754L39.8232 13.3418L39.8428 13.3223L39.9229 13.251L39.9316 13.2432L39.9404 13.2363C40.5522 12.736 41.4555 12.7695 42.0273 13.3398L42.1348 13.458C42.6346 14.0699 42.5996 14.9747 42.0293 15.5459L38.4961 19.085C38.2041 19.3774 37.8063 19.543 37.3916 19.543C36.9768 19.5428 36.5804 19.3768 36.2891 19.085L32.7568 15.5439L32.749 15.5361L32.7422 15.5283L32.6689 15.4482L32.6592 15.4375L32.6504 15.4268C32.1515 14.8135 32.1883 13.9101 32.7598 13.3398Z" fill="#203FFC" stroke="url(#paint0_linear_254_1253)"/>
<path d="M5.58984 18.4727C6.34668 18.472 6.97886 19.0108 7.12109 19.7266L7.14258 19.8721L7.14453 19.8848V19.8975L7.15039 20.0049L7.15137 20.0186H7.15039L7.16602 20.6543L7.20312 21.2363C7.44956 24.1383 8.57208 26.9081 10.4365 29.1699C12.5546 31.7389 15.5015 33.4898 18.7705 34.1221C22.0397 34.7542 25.4274 34.228 28.3506 32.6338L28.8906 32.3232C31.5554 30.7131 33.6317 28.2777 34.7979 25.3789L34.8652 25.2344C35.2329 24.5352 36.0771 24.215 36.8252 24.5156H36.8262C37.624 24.837 38.0118 25.7451 37.6904 26.5439C36.2243 30.1881 33.5764 33.2299 30.1777 35.1846L29.8457 35.3701C26.2862 37.3116 22.1604 37.9523 18.1797 37.1826C14.1991 36.4129 10.6104 34.2816 8.03125 31.1533C5.61161 28.2181 4.21744 24.5796 4.0498 20.793V20.7822L4.0332 20.0439V20.0264L4.03418 20.0078L4.03906 19.8984L4.04004 19.8867L4.04102 19.874C4.12036 19.0879 4.78282 18.4738 5.58984 18.4727ZM21.5049 0.5L22.3389 0.520508L22.3516 0.521484C24.3513 0.620214 26.3214 1.06234 28.1748 1.83105C30.2932 2.70979 32.2187 3.99783 33.8389 5.62109C37.1123 8.90123 38.9501 13.3463 38.9502 17.9844C38.9501 18.8452 38.2525 19.543 37.3916 19.543C36.5308 19.5429 35.8331 18.8452 35.833 17.9844C35.8329 14.1715 34.3217 10.5185 31.6318 7.82324C30.3015 6.49042 28.721 5.43361 26.9814 4.71191C25.4628 4.08195 23.8483 3.71704 22.21 3.63477V3.63574L21.4912 3.61719V3.61816C19.6704 3.61672 17.8655 3.96412 16.1768 4.64453L16.1719 4.64844L16.1533 4.65625C14.2598 5.41547 12.5489 6.56952 11.1367 8.04199C9.7246 9.51456 8.64218 11.2716 7.96289 13.1953L7.79688 13.667L7.71777 13.6387C7.31635 14.1496 6.62133 14.3754 5.97461 14.1475C5.32804 13.9192 4.92651 13.3071 4.93457 12.6572L4.85645 12.6299L5.18848 11.6865L5.19629 11.6885C6.02873 9.53017 7.28249 7.55674 8.88574 5.88477C10.4972 4.20429 12.4279 2.86305 14.5625 1.94043L14.5684 1.9375L14.9863 1.76367L14.9902 1.76172C17.0562 0.926139 19.2647 0.498251 21.4932 0.5H21.5049Z" fill="#203FFC" stroke="url(#paint1_linear_254_1253)"/>
<path d="M21.6523 6.98438C22.4381 7.06426 23.0516 7.72794 23.0518 8.53516V9.54004C24.0458 9.76313 24.978 10.2309 25.7598 10.9092C26.958 11.949 27.713 13.4092 27.8682 14.9883C27.9524 15.8461 27.3236 16.6073 26.4678 16.6914C25.6115 16.775 24.8488 16.1496 24.7646 15.293C24.6874 14.5078 24.3118 13.7819 23.7158 13.2646C23.1197 12.7476 22.3486 12.4775 21.5605 12.5117C21.4959 12.5145 21.4239 12.5149 21.3477 12.5078C20.9644 12.4718 20.5783 12.5136 20.2119 12.6318L20.1934 12.6377C19.7156 12.7948 19.2885 13.0747 18.9541 13.4482L18.8154 13.6152C18.469 14.0667 18.2648 14.6111 18.2285 15.1777C18.2357 16.1054 18.5104 16.5568 18.8477 16.8262C19.2565 17.1524 20.049 17.4453 21.4932 17.4453C25.4437 17.4455 27.875 20.0367 27.875 22.917C27.8749 24.093 27.5882 25.5593 26.5205 26.7422C25.6955 27.6558 24.535 28.2521 23.0518 28.4912V29.4658C23.0516 30.3266 22.3533 31.024 21.4932 31.0244C20.6324 31.0244 19.9348 30.3265 19.9346 29.4658V28.4883C18.9416 28.2789 18.0062 27.8253 17.2217 27.1523C16.0864 26.1784 15.3516 24.8235 15.1494 23.3486L15.1475 23.3359L15.1172 23.0645L15.1152 23.0459V23.0283L15.1104 22.9189V22.8926C15.1218 22.1022 15.7295 21.4347 16.5332 21.3643C17.2875 21.2982 17.9627 21.7798 18.166 22.4805L18.2002 22.623L18.2041 22.6465L18.2188 22.7549L18.2627 23.0684L18.3193 23.3154C18.4765 23.8835 18.7995 24.3972 19.2529 24.7861C19.8452 25.294 20.6133 25.5499 21.3916 25.499L21.4043 25.498L21.4736 25.4961L21.4834 25.4951H21.4932C23.1347 25.495 23.8633 25.0327 24.2061 24.6533C24.5773 24.242 24.7567 23.6391 24.7568 22.917C24.7568 22.437 24.5511 21.8568 24.0527 21.3936C23.5595 20.9353 22.7474 20.5626 21.4932 20.5625C19.7231 20.5625 18.1025 20.2197 16.9033 19.2627C15.6356 18.2507 15.1104 16.7767 15.1104 15.1406L15.1123 15.0635C15.1727 13.8493 15.6017 12.6823 16.3418 11.7178C17.0816 10.7538 18.0969 10.0367 19.2539 9.66406L19.5312 9.58301C19.6649 9.54717 19.7995 9.5165 19.9346 9.49023V8.53516C19.9347 7.67438 20.6324 6.97662 21.4932 6.97656L21.6523 6.98438Z" fill="#203FFC" stroke="url(#paint2_linear_254_1253)"/>
<defs>
<linearGradient id="paint0_linear_254_1253" x1="8.12783" y1="15.7274" x2="12.1259" y2="27.1319" gradientUnits="userSpaceOnUse">
<stop stop-color="#9AA8FF"/>
<stop offset="1" stop-color="#203FFC"/>
</linearGradient>
<linearGradient id="paint1_linear_254_1253" x1="10.4319" y1="8.5" x2="30.0157" y2="22.9398" gradientUnits="userSpaceOnUse">
<stop stop-color="#9AA8FF"/>
<stop offset="1" stop-color="#203FFC"/>
</linearGradient>
<linearGradient id="paint2_linear_254_1253" x1="17.6565" y1="12.2782" x2="26.6998" y2="15.891" gradientUnits="userSpaceOnUse">
<stop stop-color="#9AA8FF"/>
<stop offset="1" stop-color="#203FFC"/>
</linearGradient>
</defs>
</svg>
