<svg width="38" height="33" viewBox="0 0 38 33" fill="none" xmlns="http://www.w3.org/2000/svg">
<mask id="path-1-inside-1_287_5620" fill="white">
<path d="M4.85826 12.3076C4.35571 16.1775 4.05626 20.0713 3.96115 23.9729C9.22101 26.183 14.2572 28.8973 19 32.0781C23.7434 28.8972 28.7802 26.1829 34.0407 23.9729C33.9455 20.0713 33.646 16.1775 33.1436 12.3076M4.85643 12.3076C3.25152 11.765 1.6321 11.2667 0 10.8134C5.96255 6.6081 12.3274 3.01185 19 0.078125C25.6725 3.01124 32.0374 6.60687 38 10.8116C36.3629 11.2674 34.7423 11.7673 33.1436 12.3076M4.85643 12.3076C9.73226 13.9566 14.4631 16.0112 19 18.45C23.5362 16.0112 28.2683 13.9566 33.1436 12.3076M9.40773 21.2271C9.77116 21.2271 10.1197 21.0818 10.3767 20.8233C10.6337 20.5648 10.7781 20.2142 10.7781 19.8486C10.7781 19.483 10.6337 19.1324 10.3767 18.8739C10.1197 18.6154 9.77116 18.4702 9.40773 18.4702C9.0443 18.4702 8.69575 18.6154 8.43877 18.8739C8.18178 19.1324 8.03741 19.483 8.03741 19.8486C8.03741 20.2142 8.18178 20.5648 8.43877 20.8233C8.69575 21.0818 9.0443 21.2271 9.40773 21.2271ZM9.40773 21.2271V14.4727C12.5078 12.5343 15.7099 10.7661 19 9.17582M6.19752 30.4038C7.21699 29.3808 8.02542 28.1652 8.57634 26.8269C9.12725 25.4886 9.4098 24.054 9.40773 22.6055V19.8486"/>
</mask>
<path d="M3.96115 23.9729L1.96174 23.9242L1.92849 25.2882L3.18639 25.8167L3.96115 23.9729ZM19 32.0781L17.886 33.7392L19 34.4862L20.1139 33.7392L19 32.0781ZM34.0407 23.9729L34.8153 25.8168L36.0734 25.2883L36.0401 23.9241L34.0407 23.9729ZM33.1436 12.3076L32.5032 10.4129L32.5028 10.4131L33.1436 12.3076ZM4.85643 12.3076L5.49717 10.4131L5.49707 10.413L4.85643 12.3076ZM0 10.8134L-1.15272 9.17901L-4.60124 11.6112L-0.5352 12.7405L0 10.8134ZM19 0.078125L19.8048 -1.75279L18.9999 -2.10661L18.195 -1.75273L19 0.078125ZM38 10.8116L38.5364 12.7383L42.5987 11.6072L39.1526 9.17709L38 10.8116ZM19 18.45L18.053 20.2116L19.0001 20.7206L19.9471 20.2115L19 18.45ZM10.7781 19.8486H12.7781H10.7781ZM8.03741 19.8486H6.03741H8.03741ZM9.40773 14.4727L8.34741 12.7769L7.40773 13.3645V14.4727H9.40773ZM9.40773 22.6055H7.40773L7.40773 22.6083L9.40773 22.6055ZM4.85826 12.3076L2.87491 12.0501C2.36336 15.9892 2.05855 19.9528 1.96174 23.9242L3.96115 23.9729L5.96056 24.0216C6.05396 20.1899 6.34805 16.3658 6.8416 12.5652L4.85826 12.3076ZM3.96115 23.9729L3.18639 25.8167C8.32744 27.9769 13.25 30.63 17.886 33.7392L19 32.0781L20.114 30.4171C15.2643 27.1646 10.1146 24.3891 4.73591 22.1291L3.96115 23.9729ZM19 32.0781L20.1139 33.7392C24.7505 30.6299 29.6737 27.9769 34.8153 25.8168L34.0407 23.9729L33.266 22.129C27.8867 24.3889 22.7363 27.1644 17.8861 30.4171L19 32.0781ZM34.0407 23.9729L36.0401 23.9241C35.9432 19.9527 35.6384 15.9893 35.1269 12.0501L33.1436 12.3076L31.1602 12.5652C31.6537 16.3658 31.9478 20.1899 32.0413 24.0217L34.0407 23.9729ZM4.85643 12.3076L5.49707 10.413C3.85733 9.85856 2.20274 9.34947 0.5352 8.88635L0 10.8134L-0.5352 12.7405C1.06145 13.1839 2.64571 13.6713 4.21578 14.2023L4.85643 12.3076ZM0 10.8134L1.15272 12.4478C7.00631 8.31934 13.2547 4.78893 19.805 1.90898L19 0.078125L18.195 -1.75273C11.4001 1.23478 4.9188 4.89686 -1.15272 9.17901L0 10.8134ZM19 0.078125L18.1952 1.90904C24.7454 4.78839 30.9938 8.31819 36.8474 12.446L38 10.8116L39.1526 9.17709C33.081 4.89555 26.5997 1.23409 19.8048 -1.75279L19 0.078125ZM38 10.8116L37.4636 8.88486C35.7911 9.35052 34.1358 9.86113 32.5032 10.4129L33.1436 12.3076L33.784 14.2023C35.3488 13.6734 36.9348 13.1842 38.5364 12.7383L38 10.8116ZM4.85643 12.3076L4.21568 14.2022C8.98585 15.8155 13.6143 17.8255 18.053 20.2116L19 18.45L19.947 16.6883C15.312 14.1968 10.4787 12.0978 5.49717 10.4131L4.85643 12.3076ZM19 18.45L19.9471 20.2115C24.385 17.8256 29.0146 15.8155 33.7844 14.2022L33.1436 12.3076L32.5028 10.4131C27.522 12.0977 22.6875 14.1968 18.0529 16.6884L19 18.45ZM9.40773 21.2271V23.2271C10.3054 23.2271 11.1639 22.8682 11.7951 22.2334L10.3767 20.8233L8.95831 19.4133C9.07548 19.2954 9.23691 19.2271 9.40773 19.2271V21.2271ZM10.3767 20.8233L11.7951 22.2334C12.4258 21.5989 12.7781 20.7408 12.7781 19.8486H10.7781H8.77806C8.77806 19.6876 8.84155 19.5307 8.95831 19.4133L10.3767 20.8233ZM10.7781 19.8486H12.7781C12.7781 18.9564 12.4258 18.0984 11.7951 17.4639L10.3767 18.8739L8.95831 20.2839C8.84155 20.1665 8.77806 20.0097 8.77806 19.8486H10.7781ZM10.3767 18.8739L11.7951 17.4639C11.1639 16.829 10.3054 16.4702 9.40773 16.4702V18.4702V20.4702C9.23691 20.4702 9.07548 20.4018 8.95831 20.2839L10.3767 18.8739ZM9.40773 18.4702V16.4702C8.51004 16.4702 7.65152 16.829 7.02038 17.4639L8.43877 18.8739L9.85715 20.2839C9.73998 20.4018 9.57856 20.4702 9.40773 20.4702V18.4702ZM8.43877 18.8739L7.02038 17.4639C6.38964 18.0984 6.03741 18.9564 6.03741 19.8486H8.03741H10.0374C10.0374 20.0097 9.97392 20.1665 9.85715 20.2839L8.43877 18.8739ZM8.03741 19.8486H6.03741C6.03741 20.7408 6.38964 21.5989 7.02038 22.2334L8.43877 20.8233L9.85715 19.4133C9.97392 19.5307 10.0374 19.6876 10.0374 19.8486H8.03741ZM8.43877 20.8233L7.02038 22.2334C7.65152 22.8682 8.51004 23.2271 9.40773 23.2271V21.2271V19.2271C9.57856 19.2271 9.73998 19.2954 9.85715 19.4133L8.43877 20.8233ZM9.40773 21.2271H11.4077V14.4727H9.40773H7.40773V21.2271H9.40773ZM9.40773 14.4727L10.4681 16.1685C13.5068 14.2685 16.6455 12.5353 19.8704 10.9765L19 9.17582L18.1296 7.37514C14.7744 8.99694 11.5088 10.8002 8.34741 12.7769L9.40773 14.4727ZM6.19752 30.4038L7.61416 31.8156C8.81965 30.6059 9.77496 29.1692 10.4258 27.5883L8.57634 26.8269L6.72691 26.0656C6.27587 27.1613 5.61433 28.1557 4.78087 28.992L6.19752 30.4038ZM8.57634 26.8269L10.4258 27.5883C11.0766 26.0073 11.4102 24.313 11.4077 22.6026L9.40773 22.6055L7.40773 22.6083C7.40943 23.7949 7.17795 24.9699 6.72691 26.0656L8.57634 26.8269ZM9.40773 22.6055H11.4077V19.8486H9.40773H7.40773V22.6055H9.40773Z" fill="url(#paint0_linear_287_5620)" mask="url(#path-1-inside-1_287_5620)"/>
<defs>
<linearGradient id="paint0_linear_287_5620" x1="6.6087" y1="6.74479" x2="24.7821" y2="23.6342" gradientUnits="userSpaceOnUse">
<stop stop-color="#9AA8FF"/>
<stop offset="1" stop-color="#203FFC"/>
</linearGradient>
</defs>
</svg>
