<svg width="19" height="25" viewBox="0 0 19 25" fill="none" xmlns="http://www.w3.org/2000/svg">
<path d="M12.2854 12.3516L10.1528 13.6788L16.1755 17.4271L16.6224 17.1504C17.5328 16.5834 18.068 15.6947 18.068 14.751C18.0663 12.2782 14.6665 10.8676 12.2854 12.3516Z" fill="white"/>
<path d="M7.13965 11.803L16.6188 5.90374C17.5292 5.33683 18.0645 4.4481 18.0645 3.50435C18.0645 1.03327 14.6646 -0.377353 12.2836 1.10497L1.11865 8.05636L7.13965 11.803Z" fill="white"/>
<path d="M1.45564 17.1554L12.2838 23.8951C14.6665 25.3774 18.0647 23.9668 18.0647 21.4957C18.0647 20.5519 17.5294 19.6632 16.619 19.0963L0 8.75342V14.7377C0 15.6898 0.538572 16.5852 1.45564 17.1554Z" fill="white"/>
</svg>
