<svg width="13" height="13" viewBox="0 0 13 13" fill="none" xmlns="http://www.w3.org/2000/svg">
<path d="M9.05535 6.21127C9.05535 6.82331 8.81222 7.41028 8.37944 7.84306C7.94666 8.27584 7.35969 8.51897 6.74765 8.51897C6.1356 8.51897 5.54863 8.27584 5.11585 7.84306C4.68307 7.41028 4.43994 6.82331 4.43994 6.21127C4.43994 5.59923 4.68307 5.01225 5.11585 4.57948C5.54863 4.1467 6.1356 3.90356 6.74765 3.90356C7.35969 3.90356 7.94666 4.1467 8.37944 4.57948C8.81222 5.01225 9.05535 5.59923 9.05535 6.21127Z" fill="#C2C2C2"/>
<path d="M2.33367 1.79729C2.51391 1.61705 2.80607 1.61705 2.98632 1.79729L3.96529 2.77626C4.14553 2.95651 4.14553 3.24867 3.96529 3.42891C3.78504 3.60915 3.49288 3.60915 3.31264 3.42891L2.33367 2.44994C2.15343 2.2697 2.15343 1.97753 2.33367 1.79729Z" fill="#C2C2C2"/>
<path d="M2.42234 5.57837C2.67724 5.57837 2.88388 5.78501 2.88388 6.03991C2.88388 6.29481 2.67724 6.50145 2.42234 6.50145H1.03771C0.782811 6.50145 0.576172 6.29481 0.576172 6.03991C0.576172 5.78501 0.782811 5.57837 1.03771 5.57837H2.42234Z" fill="#C2C2C2"/>
<path d="M3.31261 8.65078C3.49284 8.47056 3.78501 8.47059 3.96526 8.65078C4.1455 8.83102 4.1455 9.12318 3.96526 9.30343L2.98629 10.2824C2.80605 10.4626 2.51388 10.4626 2.33364 10.2824C2.15345 10.1022 2.15342 9.80998 2.33364 9.62975L3.31261 8.65078Z" fill="#C2C2C2"/>
<path d="M6.11475 11.5786V10.194C6.11475 9.93906 6.32139 9.73242 6.57629 9.73242C6.83119 9.73242 7.03783 9.93906 7.03783 10.194V11.5786C7.03783 11.8335 6.83119 12.0401 6.57629 12.0401C6.32139 12.0401 6.11475 11.8335 6.11475 11.5786Z" fill="#C2C2C2"/>
<path d="M9.18694 8.65081C9.36718 8.47056 9.65934 8.47056 9.83959 8.65081L10.8186 9.62978C10.9988 9.81002 10.9988 10.1022 10.8186 10.2824C10.6383 10.4627 10.3462 10.4627 10.1659 10.2824L9.18694 9.30345C9.0067 9.12321 9.0067 8.83105 9.18694 8.65081Z" fill="#C2C2C2"/>
<path d="M12.1147 5.57837C12.3696 5.57837 12.5763 5.78501 12.5763 6.03991C12.5763 6.29481 12.3696 6.50145 12.1147 6.50145H10.7301C10.4752 6.50145 10.2686 6.29481 10.2686 6.03991C10.2686 5.78501 10.4752 5.57837 10.7301 5.57837H12.1147Z" fill="#C2C2C2"/>
<path d="M10.1661 1.79726C10.3464 1.61704 10.6385 1.61708 10.8188 1.79726C10.999 1.97751 10.999 2.26967 10.8188 2.44991L9.8398 3.42888C9.65956 3.60913 9.3674 3.60913 9.18716 3.42888C9.00697 3.24864 9.00693 2.95646 9.18716 2.77624L10.1661 1.79726Z" fill="#C2C2C2"/>
<path d="M6.11475 1.8862V0.50158C6.11475 0.246678 6.32139 0.0400391 6.57629 0.0400391C6.83119 0.0400391 7.03783 0.246678 7.03783 0.50158V1.8862C7.03783 2.1411 6.83119 2.34774 6.57629 2.34774C6.32139 2.34774 6.11475 2.1411 6.11475 1.8862Z" fill="#C2C2C2"/>
</svg>
