<svg width="105" height="27" viewBox="0 0 105 27" fill="none" xmlns="http://www.w3.org/2000/svg">
<path d="M13.309 13.2405L10.9987 14.6783L17.5231 18.7389L18.0072 18.4391C18.9935 17.8249 19.5733 16.8621 19.5733 15.8398C19.5715 13.161 15.8884 11.6328 13.309 13.2405Z" fill="#0088DB"/>
<path d="M7.73634 12.6457L18.0053 6.25487C18.9916 5.64072 19.5714 4.67794 19.5714 3.65556C19.5714 0.978579 15.8883 -0.549576 13.3089 1.05625L1.21368 8.58684L7.73634 12.6457Z" fill="#0088DB"/>
<path d="M1.57705 18.4444L13.3074 25.7456C15.8886 27.3514 19.5699 25.8232 19.5699 23.1463C19.5699 22.1239 18.9901 21.1611 18.0038 20.5469L0.00012207 9.34229V15.8252C0.00012207 16.8566 0.583566 17.8266 1.57705 18.4444Z" fill="#2D2D3F"/>
<path d="M37.7894 2.37939V5.22256H29.9247V7.07224H37.5997V9.93166H29.9247V14.8936H26.5269V2.37939H37.7894Z" fill="#2D2D3F"/>
<path d="M49.3823 2.14746C50.3306 2.14746 51.1923 2.22333 51.9654 2.37506C52.7385 2.52679 53.387 2.72729 53.9108 2.97295C54.4346 3.22042 54.8916 3.52388 55.2836 3.88334C55.6756 4.2428 55.9808 4.60226 56.2012 4.96172C56.4216 5.32118 56.6004 5.71496 56.7377 6.14126C56.875 6.56755 56.9635 6.95049 57.0014 7.28828C57.0412 7.62606 57.061 7.9801 57.061 8.3504V8.85617C57.061 9.21563 57.0412 9.56425 57.0014 9.90203C56.9617 10.2398 56.875 10.6246 56.7377 11.0563C56.6004 11.4898 56.4234 11.889 56.2084 12.2539C55.9935 12.6188 55.6882 12.9854 55.2908 13.3503C54.8952 13.7152 54.4364 14.0241 53.918 14.277C53.3996 14.5298 52.7511 14.7358 51.9726 14.8929C51.1941 15.0501 50.3306 15.1296 49.3823 15.1296H48.9181C47.9698 15.1296 47.1027 15.0519 46.3206 14.8929C45.5385 14.7358 44.8864 14.5298 44.3679 14.277C43.8495 14.0241 43.3907 13.7152 42.9951 13.3503C42.5996 12.9854 42.2907 12.6206 42.0703 12.2539C41.8499 11.889 41.6747 11.4898 41.541 11.0563C41.4092 10.6228 41.3243 10.238 41.2845 9.90203C41.2448 9.56606 41.2267 9.21563 41.2267 8.85617V8.3504C41.2267 7.9801 41.2466 7.62786 41.2845 7.29731C41.3243 6.96675 41.4092 6.58381 41.541 6.15029C41.6729 5.71677 41.8499 5.32118 42.0703 4.96172C42.2907 4.60226 42.5959 4.2428 42.9879 3.88334C43.3799 3.52388 43.8369 3.22042 44.3607 2.97295C44.8846 2.72549 45.5366 2.52679 46.3206 2.37506C47.1027 2.22333 47.9698 2.14746 48.9181 2.14746H49.3823ZM53.4791 8.46961C53.4791 8.15531 53.4448 7.85727 53.3761 7.57548C53.3075 7.29369 53.1756 7.00288 52.9805 6.69941C52.7854 6.39595 52.5308 6.13764 52.2165 5.9245C51.9022 5.71135 51.4777 5.53433 50.9394 5.39343C50.4968 5.27783 49.9947 5.20919 49.4329 5.18932C49.3119 5.18571 49.0554 5.1839 48.9723 5.18571C46.1978 5.24893 44.8105 6.34356 44.8105 8.46961V8.67192C44.8105 9.07654 44.8719 9.45948 44.9947 9.81894C45.1176 10.1784 45.3253 10.5379 45.6179 10.8973C45.9106 11.2568 46.3658 11.544 46.9835 11.7571C47.5525 11.954 48.2335 12.0606 49.0283 12.075C49.0933 12.0769 49.2739 12.075 49.3769 12.0714C50.1121 12.0498 50.7479 11.9468 51.2844 11.7644C51.8967 11.5566 52.3537 11.2748 52.6572 10.9208C52.9607 10.5668 53.1738 10.2091 53.2948 9.84965C53.4177 9.49019 53.4791 9.10725 53.4791 8.70263V8.46961Z" fill="#2D2D3F"/>
<path d="M73.2423 11.5043V14.9038H70.1282V12.6983C70.1282 11.9342 69.9728 11.3833 69.6621 11.0401C69.3514 10.6969 68.8204 10.5253 68.0653 10.5253H64.021V14.9038H60.9213V2.56299H68.9035C71.7683 2.56299 73.2007 3.63053 73.2007 5.7638V5.9625C73.2007 7.26667 72.5884 8.16803 71.3655 8.66658C71.9237 8.86527 72.377 9.19944 72.722 9.67089C73.0707 10.1405 73.2423 10.7511 73.2423 11.5043ZM69.9692 6.5604C69.9692 6.20635 69.868 5.91915 69.6639 5.69878C69.4598 5.4784 69.1455 5.36641 68.7192 5.36641H64.0228V7.7887H68.7192C69.1455 7.7887 69.4598 7.67851 69.6639 7.45633C69.868 7.23596 69.9692 6.94153 69.9692 6.57665V6.5604Z" fill="#2D2D3F"/>
<path d="M81.3236 5.3345H76.6272V2.3667H89.4864V5.3345H84.7737V14.9099H81.3236V5.3345Z" fill="#2D2D3F"/>
<path d="M104.609 2.32114V5.17695H96.4574V7.03566H104.418V9.90773H96.4574V11.9687H104.756V14.8914H93.0741V2.31934H104.609V2.32114Z" fill="#2D2D3F"/>
<path d="M33.4268 18.4209H34.8051L32.9301 24.5263H31.7524L30.3832 21.1069L29.0664 24.5263H27.8886L25.9613 18.4209H27.3666L28.5624 22.4761L30.1664 18.4805H30.6108L32.2599 22.4761L33.4268 18.4209Z" fill="#0088DB"/>
<path d="M38.8782 23.2962H41.3113V24.5263H37.5523V18.4209H41.2156V19.642H38.8782V20.845H40.9898V22.0408H38.8782V23.2962Z" fill="#0088DB"/>
<path d="M48.0183 21.3073C48.2857 21.4464 48.4934 21.6432 48.6415 21.8961C48.7896 22.149 48.8637 22.438 48.8637 22.7632C48.8637 23.2509 48.6758 23.6681 48.3001 24.0095C47.9244 24.3527 47.4728 24.5243 46.9435 24.5243H44.3442V18.4189H46.8731C47.3969 18.4189 47.8323 18.5689 48.1809 18.8687C48.5295 19.1686 48.7047 19.5425 48.7047 19.9886C48.7047 20.2506 48.6433 20.498 48.5223 20.7292C48.4031 20.9641 48.2333 21.1555 48.0183 21.3073ZM47.4258 20.2C47.4258 20.1006 47.4096 20.0121 47.3771 19.9345C47.3446 19.8568 47.2994 19.7881 47.2416 19.7303C47.1838 19.6725 47.1115 19.6274 47.0284 19.5949C46.9435 19.5624 46.8496 19.5479 46.7449 19.5479H45.6466V20.8467H46.7449C46.9544 20.8467 47.1206 20.787 47.2416 20.6678C47.3644 20.5468 47.4258 20.3915 47.4258 20.2ZM46.8153 23.3123C47.0303 23.3123 47.2055 23.2491 47.3391 23.1208C47.4728 22.9926 47.5396 22.8282 47.5396 22.6241C47.5396 22.4272 47.4728 22.2628 47.3391 22.1364C47.2055 22.0081 47.0303 21.9449 46.8153 21.9449H45.6466V23.3141H46.8153V23.3123Z" fill="#0088DB"/>
<path d="M58.1808 18.4209C59.0767 18.4209 59.8155 18.7081 60.4007 19.2807C60.986 19.8533 61.2786 20.5813 61.2786 21.4664C61.2786 22.3497 60.986 23.0812 60.4007 23.6593C59.8173 24.2373 59.0767 24.5263 58.1808 24.5263H55.8687V18.4209H58.1808ZM58.1446 23.2962C58.6685 23.2962 59.0948 23.1246 59.4271 22.7814C59.7577 22.4382 59.9239 21.9992 59.9239 21.4646C59.9239 20.9299 59.7577 20.4928 59.4271 20.1568C59.0948 19.819 58.6685 19.651 58.1446 19.651H57.1945V23.2962H58.1446Z" fill="#0088DB"/>
<path d="M65.5776 23.2962H68.0108V24.5263H64.2518V18.4209H67.915V19.642H65.5776V20.845H67.6892V22.0408H65.5776V23.2962Z" fill="#0088DB"/>
<path d="M73.0686 24.6471C72.3587 24.6471 71.7879 24.4592 71.3544 24.0853C70.9209 23.7096 70.7041 23.1966 70.7041 22.5463H72.039C72.039 22.6926 72.0661 22.8209 72.1221 22.9347C72.1781 23.0485 72.2521 23.1388 72.3479 23.2092C72.4436 23.2797 72.5538 23.332 72.6748 23.3664C72.7976 23.4007 72.9241 23.4187 73.0596 23.4187C73.3269 23.4187 73.5581 23.3555 73.7532 23.2273C73.9483 23.099 74.0458 22.9256 74.0458 22.7034C74.0458 22.6113 74.0223 22.5282 73.9754 22.4542C73.9284 22.3819 73.876 22.3241 73.8146 22.279C73.7532 22.2356 73.6611 22.1904 73.5364 22.1435C73.4118 22.0965 73.3052 22.0622 73.2185 22.0387C73.1318 22.0152 72.9999 21.9845 72.8265 21.943C72.6875 21.9087 72.5827 21.8816 72.5122 21.8635C72.4418 21.8454 72.3388 21.8165 72.2034 21.7768C72.0661 21.7352 71.9613 21.6991 71.8891 21.6684C71.8168 21.6359 71.7211 21.5907 71.6055 21.5329C71.488 21.4751 71.3995 21.4173 71.3345 21.3577C71.2713 21.2999 71.199 21.2277 71.1214 21.1392C71.0419 21.0525 70.9841 20.9603 70.9425 20.8646C70.901 20.7689 70.8667 20.6587 70.8378 20.5322C70.8089 20.4076 70.7944 20.2739 70.7944 20.1348C70.7944 19.5532 70.9913 19.1034 71.3869 18.7819C71.7825 18.4622 72.3226 18.3032 73.009 18.3032C73.7008 18.3032 74.2409 18.4784 74.6274 18.8271C75.014 19.1757 75.2073 19.6562 75.2073 20.2667H73.8977C73.8977 20.0174 73.8092 19.826 73.6322 19.6959C73.4551 19.5658 73.2348 19.499 72.9729 19.499C72.7398 19.499 72.5375 19.5478 72.3659 19.6471C72.1943 19.7465 72.1076 19.8892 72.1076 20.0752C72.1076 20.1619 72.1293 20.2396 72.1726 20.3064C72.216 20.3733 72.2666 20.4293 72.3262 20.4726C72.384 20.516 72.4743 20.5593 72.5971 20.6027C72.72 20.646 72.8229 20.6785 72.906 20.6984C72.9909 20.7183 73.1174 20.749 73.2853 20.7905C73.4714 20.8375 73.6105 20.8736 73.7044 20.8989C73.7965 20.9242 73.9302 20.9694 74.1054 21.029C74.2806 21.0904 74.4143 21.15 74.51 21.2078C74.6058 21.2656 74.7178 21.3433 74.846 21.439C74.9743 21.5347 75.0718 21.6395 75.1386 21.7533C75.2055 21.8671 75.2633 22.0026 75.3139 22.1633C75.3626 22.3241 75.3879 22.4957 75.3879 22.6818C75.3879 23.1063 75.2813 23.4693 75.0664 23.7728C74.8514 24.0763 74.5733 24.2966 74.2337 24.4357C73.8941 24.5784 73.5057 24.6471 73.0686 24.6471Z" fill="#0088DB"/>
<path d="M78.3629 24.5263V18.4209H79.6887V24.5263H78.3629Z" fill="#0088DB"/>
<path d="M85.6824 21.3327H88.9356C88.9302 22.2973 88.6358 23.0939 88.0541 23.7189C87.4725 24.3439 86.7247 24.6564 85.8125 24.6564C84.9111 24.6564 84.1597 24.3547 83.5582 23.7532C82.9567 23.1517 82.655 22.3948 82.655 21.4808C82.655 20.5614 82.9512 19.801 83.5455 19.1958C84.138 18.5907 84.8858 18.2891 85.7872 18.2891C86.5494 18.2891 87.2142 18.5058 87.785 18.9393C88.3558 19.3729 88.7098 19.9328 88.8489 20.6192H87.4887C87.402 20.3989 87.2756 20.2074 87.113 20.0484C86.9504 19.8895 86.7572 19.7648 86.5332 19.6781C86.3092 19.5914 86.069 19.5481 85.8143 19.5481C85.2742 19.5481 84.8352 19.7287 84.4975 20.0882C84.1597 20.4476 83.9917 20.9137 83.9917 21.4845C83.9917 21.8566 84.0675 22.1889 84.2175 22.4797C84.3692 22.7706 84.5823 22.9964 84.8587 23.1607C85.1351 23.3233 85.453 23.4046 85.8143 23.4046C86.0762 23.4046 86.3237 23.3612 86.5567 23.2745C86.7897 23.1878 86.9884 23.0632 87.1546 22.9042C87.3207 22.7435 87.44 22.5628 87.5158 22.3587H85.6842V21.3327H85.6824Z" fill="#0088DB"/>
<path d="M95.747 18.4209H97.0386V24.5263H95.9385L93.173 20.7149V24.5263H91.8725V18.4209H93.0683L95.7452 22.1456V18.4209H95.747Z" fill="#0088DB"/>
<path d="M102.376 24.6471C101.666 24.6471 101.095 24.4592 100.662 24.0853C100.228 23.7096 100.012 23.1966 100.012 22.5463H101.347C101.347 22.6926 101.374 22.8209 101.43 22.9347C101.486 23.0485 101.56 23.1388 101.655 23.2092C101.751 23.2797 101.861 23.332 101.982 23.3664C102.105 23.4007 102.232 23.4187 102.367 23.4187C102.634 23.4187 102.866 23.3555 103.061 23.2273C103.256 23.099 103.353 22.9256 103.353 22.7034C103.353 22.6113 103.33 22.5282 103.283 22.4542C103.236 22.3819 103.184 22.3241 103.122 22.279C103.061 22.2356 102.969 22.1904 102.844 22.1435C102.719 22.0965 102.613 22.0622 102.526 22.0387C102.439 22.0152 102.308 21.9845 102.134 21.943C101.995 21.9087 101.89 21.8816 101.82 21.8635C101.749 21.8454 101.646 21.8165 101.511 21.7768C101.374 21.7352 101.269 21.6991 101.197 21.6684C101.124 21.6359 101.029 21.5907 100.913 21.5329C100.796 21.4751 100.707 21.4173 100.642 21.3577C100.579 21.2999 100.507 21.2277 100.429 21.1392C100.349 21.0525 100.292 20.9603 100.25 20.8646C100.209 20.7689 100.174 20.6587 100.145 20.5322C100.116 20.4058 100.102 20.2739 100.102 20.1348C100.102 19.5532 100.299 19.1034 100.694 18.7819C101.09 18.4622 101.63 18.3032 102.317 18.3032C103.008 18.3032 103.548 18.4784 103.935 18.8271C104.322 19.1757 104.515 19.6562 104.515 20.2667H103.205C103.205 20.0174 103.117 19.826 102.94 19.6959C102.763 19.5658 102.542 19.499 102.28 19.499C102.047 19.499 101.845 19.5478 101.673 19.6471C101.502 19.7465 101.415 19.8892 101.415 20.0752C101.415 20.1619 101.437 20.2396 101.48 20.3064C101.524 20.3733 101.574 20.4293 101.634 20.4726C101.692 20.516 101.782 20.5593 101.905 20.6027C102.028 20.646 102.13 20.6785 102.214 20.6984C102.298 20.7183 102.425 20.749 102.593 20.7905C102.779 20.8375 102.918 20.8736 103.012 20.8989C103.104 20.9242 103.238 20.9694 103.413 21.029C103.588 21.0904 103.722 21.15 103.818 21.2078C103.913 21.2656 104.025 21.3433 104.154 21.439C104.282 21.5347 104.379 21.6395 104.446 21.7533C104.513 21.8671 104.571 22.0026 104.621 22.1633C104.67 22.3241 104.695 22.4957 104.695 22.6818C104.695 23.1063 104.589 23.4693 104.374 23.7728C104.159 24.0763 103.881 24.2966 103.541 24.4357C103.202 24.5748 102.811 24.6471 102.376 24.6471Z" fill="#0088DB"/>
</svg>
