<svg width="30" height="31" viewBox="0 0 30 31" fill="none" xmlns="http://www.w3.org/2000/svg">
<mask id="path-1-inside-1_287_5617" fill="white">
<path d="M28.7499 18.6615V25.7448C28.7499 27.5681 27.4383 29.1381 25.6299 29.3781C22.1516 29.8398 18.6033 30.0781 15 30.0781C11.3967 30.0781 7.84838 29.8398 4.37007 29.3781C2.56174 29.1381 1.25008 27.5681 1.25008 25.7448V18.6615M28.7499 18.6615C29.1457 18.3175 29.4623 17.892 29.6781 17.4142C29.8938 16.9363 30.0036 16.4174 29.9999 15.8931V9.58813C29.9999 7.78646 28.7199 6.22979 26.9383 5.96313C25.0504 5.68049 23.1531 5.46535 21.25 5.31812M28.7499 18.6615C28.4266 18.9365 28.0499 19.1531 27.6283 19.2948C23.5553 20.6462 19.2913 21.3328 15 21.3281C10.5867 21.3281 6.34172 20.6131 2.37174 19.2948C1.96051 19.158 1.57963 18.9429 1.25008 18.6615M1.25008 18.6615C0.854326 18.3175 0.53769 17.892 0.321922 17.4142C0.106153 16.9363 -0.00363693 16.4174 9.18958e-05 15.8931V9.58813C9.18958e-05 7.78646 1.28008 6.22979 3.06174 5.96313C4.94956 5.68049 6.84687 5.46535 8.75004 5.31812M21.25 5.31812V3.82812C21.25 2.83356 20.8549 1.87974 20.1516 1.17647C19.4484 0.473213 18.4945 0.078125 17.5 0.078125H12.5C11.5055 0.078125 10.5516 0.473213 9.84838 1.17647C9.14512 1.87974 8.75004 2.83356 8.75004 3.82812V5.31812M21.25 5.31812C17.0895 4.99659 12.9105 4.99659 8.75004 5.31812H21.25ZM15 16.3281H15.0133V16.3415H15V16.3281Z"/>
</mask>
<path d="M25.6299 29.3781L25.3668 27.3955L25.3668 27.3955L25.6299 29.3781ZM4.37007 29.3781L4.63321 27.3955L4.6332 27.3955L4.37007 29.3781ZM29.9999 15.8931H27.9999V15.9002L28 15.9073L29.9999 15.8931ZM26.9383 5.96313L26.6421 7.94108L26.6422 7.94109L26.9383 5.96313ZM27.6283 19.2948L28.2581 21.193L28.2652 21.1907L27.6283 19.2948ZM15 21.3281L15.0022 19.3281H15V21.3281ZM2.37174 19.2948L1.74046 21.1925L1.74144 21.1929L2.37174 19.2948ZM9.18958e-05 15.8931L2.00004 15.9073L2.00009 15.9002V15.8931H9.18958e-05ZM3.06174 5.96313L3.35779 7.94109L3.35787 7.94108L3.06174 5.96313ZM15 16.3281V14.3281H13V16.3281H15ZM15.0133 16.3281H17.0133V14.3281H15.0133V16.3281ZM15.0133 16.3415V18.3415H17.0133V16.3415H15.0133ZM15 16.3415H13V18.3415H15V16.3415ZM28.7499 18.6615H26.7499V25.7448H28.7499H30.7499V18.6615H28.7499ZM28.7499 25.7448H26.7499C26.7499 26.6151 26.1323 27.2939 25.3668 27.3955L25.6299 29.3781L25.8931 31.3607C28.7442 30.9823 30.7499 28.5211 30.7499 25.7448H28.7499ZM25.6299 29.3781L25.3668 27.3955C21.9754 27.8456 18.515 28.0781 15 28.0781V30.0781V32.0781C18.6916 32.0781 22.3278 31.8339 25.8931 31.3607L25.6299 29.3781ZM15 30.0781V28.0781C11.485 28.0781 8.02457 27.8456 4.63321 27.3955L4.37007 29.3781L4.10692 31.3607C7.67218 31.8339 11.3084 32.0781 15 32.0781V30.0781ZM4.37007 29.3781L4.6332 27.3955C3.86765 27.2939 3.25008 26.6151 3.25008 25.7448H1.25008H-0.749916C-0.749916 28.5211 1.25584 30.9823 4.10693 31.3607L4.37007 29.3781ZM1.25008 25.7448H3.25008V18.6615H1.25008H-0.749916V25.7448H1.25008ZM28.7499 18.6615L30.0618 20.1711C30.6754 19.6378 31.1663 18.9781 31.5009 18.2372L29.6781 17.4142L27.8553 16.5911C27.7583 16.806 27.6159 16.9972 27.438 17.1518L28.7499 18.6615ZM29.6781 17.4142L31.5009 18.2372C31.8354 17.4963 32.0056 16.6918 31.9999 15.8789L29.9999 15.8931L28 15.9073C28.0016 16.143 27.9523 16.3763 27.8553 16.5911L29.6781 17.4142ZM29.9999 15.8931H31.9999V9.58813H29.9999H27.9999V15.8931H29.9999ZM29.9999 9.58813H31.9999C31.9999 6.84481 30.0426 4.40548 27.2343 3.98516L26.9383 5.96313L26.6422 7.94109C27.3972 8.0541 27.9999 8.72811 27.9999 9.58813H29.9999ZM26.9383 5.96313L27.2344 3.98517C25.2995 3.69549 23.3549 3.47498 21.4042 3.32408L21.25 5.31812L21.0957 7.31217C22.9514 7.45572 24.8014 7.66549 26.6421 7.94108L26.9383 5.96313ZM28.7499 18.6615L27.4542 17.138C27.3215 17.2508 27.1676 17.3397 26.9913 17.3989L27.6283 19.2948L28.2652 21.1907C28.9322 20.9666 29.5317 20.6221 30.0457 20.1849L28.7499 18.6615ZM27.6283 19.2948L26.9984 17.3966C23.1293 18.6803 19.0787 19.3325 15.0022 19.3281L15 21.3281L14.9978 23.3281C19.5039 23.333 23.9813 22.6121 28.2581 21.193L27.6283 19.2948ZM15 21.3281V19.3281C10.804 19.3281 6.77171 18.6485 3.00205 17.3967L2.37174 19.2948L1.74144 21.1929C5.91173 22.5777 10.3694 23.3281 15 23.3281V21.3281ZM2.37174 19.2948L3.00303 17.397C2.83658 17.3417 2.68242 17.2546 2.54903 17.1407L1.25008 18.6615L-0.0488623 20.1822C0.476837 20.6312 1.08444 20.9743 1.74046 21.1925L2.37174 19.2948ZM1.25008 18.6615L2.56196 17.1518C2.38406 16.9972 2.24172 16.8059 2.14472 16.5911L0.321922 17.4142L-1.50087 18.2372C-1.16633 18.9781 -0.675404 19.6379 -0.0617965 20.1711L1.25008 18.6615ZM0.321922 17.4142L2.14472 16.5911C2.04772 16.3763 1.99837 16.143 2.00004 15.9073L9.18958e-05 15.8931L-1.99986 15.8789C-2.00564 16.6918 -1.83541 17.4963 -1.50087 18.2372L0.321922 17.4142ZM9.18958e-05 15.8931H2.00009V9.58813H9.18958e-05H-1.99991V15.8931H9.18958e-05ZM9.18958e-05 9.58813H2.00009C2.00009 8.72811 2.60275 8.0541 3.35779 7.94109L3.06174 5.96313L2.76569 3.98516C-0.0425813 4.40548 -1.99991 6.84481 -1.99991 9.58813H9.18958e-05ZM3.06174 5.96313L3.35787 7.94108C5.1986 7.66549 7.04859 7.45572 8.90429 7.31217L8.75004 5.31812L8.59579 3.32408C6.64514 3.47498 4.70051 3.69548 2.76561 3.98517L3.06174 5.96313ZM21.25 5.31812H23.25V3.82812H21.25H19.25V5.31812H21.25ZM21.25 3.82812H23.25C23.25 2.30313 22.6442 0.8406 21.5658 -0.237735L20.1516 1.17647L18.7374 2.59068C19.0656 2.91887 19.25 3.36399 19.25 3.82812H21.25ZM20.1516 1.17647L21.5658 -0.237735C20.4875 -1.31607 19.025 -1.92188 17.5 -1.92188V0.078125V2.07812C17.9641 2.07812 18.4092 2.2625 18.7374 2.59068L20.1516 1.17647ZM17.5 0.078125V-1.92188H12.5V0.078125V2.07812H17.5V0.078125ZM12.5 0.078125V-1.92188C10.975 -1.92188 9.51249 -1.31607 8.43416 -0.237735L9.84838 1.17647L11.2626 2.59068C11.5908 2.2625 12.0359 2.07812 12.5 2.07812V0.078125ZM9.84838 1.17647L8.43416 -0.237735C7.35583 0.8406 6.75004 2.30313 6.75004 3.82812H8.75004H10.75C10.75 3.36399 10.9344 2.91887 11.2626 2.59068L9.84838 1.17647ZM8.75004 3.82812H6.75004V5.31812H8.75004H10.75V3.82812H8.75004ZM21.25 5.31812L21.4041 3.32407C17.141 2.99461 12.859 2.99461 8.59593 3.32407L8.75004 5.31812L8.90415 7.31218C12.962 6.99857 17.038 6.99857 21.0959 7.31218L21.25 5.31812ZM15 16.3281V18.3281H15.0133V16.3281V14.3281H15V16.3281ZM15.0133 16.3281H13.0133V16.3415H15.0133H17.0133V16.3281H15.0133ZM15.0133 16.3415V14.3415H15V16.3415V18.3415H15.0133V16.3415ZM15 16.3415H17V16.3281H15H13V16.3415H15Z" fill="url(#paint0_linear_287_5617)" mask="url(#path-1-inside-1_287_5617)"/>
<defs>
<linearGradient id="paint0_linear_287_5617" x1="5.21739" y1="6.32812" x2="21.8" y2="19.3059" gradientUnits="userSpaceOnUse">
<stop stop-color="#9AA8FF"/>
<stop offset="1" stop-color="#203FFC"/>
</linearGradient>
</defs>
</svg>
