<svg width="30" height="30" viewBox="0 0 30 30" fill="none" xmlns="http://www.w3.org/2000/svg">
<mask id="path-1-inside-1_153_6810" fill="white">
<path d="M28.7499 18.5872V25.6706C28.7499 27.4939 27.4383 29.0639 25.6299 29.3039C22.1516 29.7656 18.6033 30.0039 15 30.0039C11.3967 30.0039 7.84838 29.7656 4.37007 29.3039C2.56174 29.0639 1.25008 27.4939 1.25008 25.6706V18.5872M28.7499 18.5872C29.1457 18.2433 29.4623 17.8178 29.6781 17.34C29.8938 16.8621 30.0036 16.3432 29.9999 15.8189V9.51391C29.9999 7.71224 28.7199 6.15557 26.9383 5.88891C25.0504 5.60627 23.1531 5.39113 21.25 5.24391M28.7499 18.5872C28.4266 18.8622 28.0499 19.0789 27.6283 19.2206C23.5553 20.572 19.2913 21.2585 15 21.2539C10.5867 21.2539 6.34172 20.5389 2.37174 19.2206C1.96051 19.0838 1.57963 18.8687 1.25008 18.5872M1.25008 18.5872C0.854326 18.2433 0.53769 17.8178 0.321922 17.34C0.106153 16.8621 -0.00363693 16.3432 9.18958e-05 15.8189V9.51391C9.18958e-05 7.71224 1.28008 6.15557 3.06174 5.88891C4.94956 5.60627 6.84687 5.39113 8.75004 5.24391M21.25 5.24391V3.75391C21.25 2.75934 20.8549 1.80552 20.1516 1.10226C19.4484 0.398994 18.4945 0.00390625 17.5 0.00390625H12.5C11.5055 0.00390625 10.5516 0.398994 9.84838 1.10226C9.14512 1.80552 8.75004 2.75934 8.75004 3.75391V5.24391M21.25 5.24391C17.0895 4.92237 12.9105 4.92237 8.75004 5.24391H21.25ZM15 16.2539H15.0133V16.2672H15V16.2539Z"/>
</mask>
<path d="M25.6299 29.3039L25.3668 27.3213L25.3668 27.3213L25.6299 29.3039ZM4.37007 29.3039L4.63321 27.3213L4.6332 27.3213L4.37007 29.3039ZM29.9999 15.8189H27.9999V15.826L28 15.8331L29.9999 15.8189ZM26.9383 5.88891L26.6421 7.86686L26.6422 7.86687L26.9383 5.88891ZM27.6283 19.2206L28.2581 21.1188L28.2652 21.1164L27.6283 19.2206ZM15 21.2539L15.0022 19.2539H15V21.2539ZM2.37174 19.2206L1.74046 21.1183L1.74144 21.1187L2.37174 19.2206ZM9.18958e-05 15.8189L2.00004 15.8331L2.00009 15.826V15.8189H9.18958e-05ZM3.06174 5.88891L3.35779 7.86687L3.35787 7.86686L3.06174 5.88891ZM15 16.2539V14.2539H13V16.2539H15ZM15.0133 16.2539H17.0133V14.2539H15.0133V16.2539ZM15.0133 16.2672V18.2672H17.0133V16.2672H15.0133ZM15 16.2672H13V18.2672H15V16.2672ZM28.7499 18.5872H26.7499V25.6706H28.7499H30.7499V18.5872H28.7499ZM28.7499 25.6706H26.7499C26.7499 26.5409 26.1323 27.2197 25.3668 27.3213L25.6299 29.3039L25.8931 31.2865C28.7442 30.9081 30.7499 28.4469 30.7499 25.6706H28.7499ZM25.6299 29.3039L25.3668 27.3213C21.9754 27.7714 18.515 28.0039 15 28.0039V30.0039V32.0039C18.6916 32.0039 22.3278 31.7597 25.8931 31.2865L25.6299 29.3039ZM15 30.0039V28.0039C11.485 28.0039 8.02457 27.7714 4.63321 27.3213L4.37007 29.3039L4.10692 31.2865C7.67218 31.7597 11.3084 32.0039 15 32.0039V30.0039ZM4.37007 29.3039L4.6332 27.3213C3.86765 27.2197 3.25008 26.5409 3.25008 25.6706H1.25008H-0.749916C-0.749916 28.4469 1.25584 30.9081 4.10693 31.2865L4.37007 29.3039ZM1.25008 25.6706H3.25008V18.5872H1.25008H-0.749916V25.6706H1.25008ZM28.7499 18.5872L30.0618 20.0969C30.6754 19.5636 31.1663 18.9039 31.5009 18.163L29.6781 17.34L27.8553 16.5169C27.7583 16.7317 27.6159 16.923 27.438 17.0776L28.7499 18.5872ZM29.6781 17.34L31.5009 18.163C31.8354 17.4221 32.0056 16.6176 31.9999 15.8047L29.9999 15.8189L28 15.8331C28.0016 16.0688 27.9523 16.3021 27.8553 16.5169L29.6781 17.34ZM29.9999 15.8189H31.9999V9.51391H29.9999H27.9999V15.8189H29.9999ZM29.9999 9.51391H31.9999C31.9999 6.77059 30.0426 4.33126 27.2343 3.91094L26.9383 5.88891L26.6422 7.86687C27.3972 7.97988 27.9999 8.65389 27.9999 9.51391H29.9999ZM26.9383 5.88891L27.2344 3.91095C25.2995 3.62127 23.3549 3.40076 21.4042 3.24986L21.25 5.24391L21.0957 7.23795C22.9514 7.3815 24.8014 7.59128 26.6421 7.86686L26.9383 5.88891ZM28.7499 18.5872L27.4542 17.0638C27.3215 17.1766 27.1676 17.2655 26.9913 17.3247L27.6283 19.2206L28.2652 21.1164C28.9322 20.8923 29.5317 20.5479 30.0457 20.1107L28.7499 18.5872ZM27.6283 19.2206L26.9984 17.3223C23.1293 18.6061 19.0787 19.2583 15.0022 19.2539L15 21.2539L14.9978 23.2539C19.5039 23.2588 23.9813 22.5378 28.2581 21.1188L27.6283 19.2206ZM15 21.2539V19.2539C10.804 19.2539 6.77171 18.5743 3.00205 17.3225L2.37174 19.2206L1.74144 21.1187C5.91173 22.5035 10.3694 23.2539 15 23.2539V21.2539ZM2.37174 19.2206L3.00303 17.3228C2.83658 17.2674 2.68242 17.1804 2.54903 17.0665L1.25008 18.5872L-0.0488623 20.108C0.476837 20.557 1.08444 20.9001 1.74046 21.1183L2.37174 19.2206ZM1.25008 18.5872L2.56196 17.0776C2.38406 16.923 2.24172 16.7317 2.14472 16.5169L0.321922 17.34L-1.50087 18.163C-1.16633 18.9039 -0.675404 19.5636 -0.0617965 20.0969L1.25008 18.5872ZM0.321922 17.34L2.14472 16.5169C2.04772 16.3021 1.99837 16.0688 2.00004 15.8331L9.18958e-05 15.8189L-1.99986 15.8047C-2.00564 16.6176 -1.83541 17.4221 -1.50087 18.163L0.321922 17.34ZM9.18958e-05 15.8189H2.00009V9.51391H9.18958e-05H-1.99991V15.8189H9.18958e-05ZM9.18958e-05 9.51391H2.00009C2.00009 8.65389 2.60275 7.97988 3.35779 7.86687L3.06174 5.88891L2.76569 3.91094C-0.0425813 4.33126 -1.99991 6.77059 -1.99991 9.51391H9.18958e-05ZM3.06174 5.88891L3.35787 7.86686C5.1986 7.59127 7.04859 7.3815 8.90429 7.23795L8.75004 5.24391L8.59579 3.24986C6.64514 3.40076 4.70051 3.62126 2.76561 3.91095L3.06174 5.88891ZM21.25 5.24391H23.25V3.75391H21.25H19.25V5.24391H21.25ZM21.25 3.75391H23.25C23.25 2.22891 22.6442 0.766381 21.5658 -0.311953L20.1516 1.10226L18.7374 2.51646C19.0656 2.84465 19.25 3.28977 19.25 3.75391H21.25ZM20.1516 1.10226L21.5658 -0.311953C20.4875 -1.39029 19.025 -1.99609 17.5 -1.99609V0.00390625V2.00391C17.9641 2.00391 18.4092 2.18828 18.7374 2.51646L20.1516 1.10226ZM17.5 0.00390625V-1.99609H12.5V0.00390625V2.00391H17.5V0.00390625ZM12.5 0.00390625V-1.99609C10.975 -1.99609 9.51249 -1.39029 8.43416 -0.311953L9.84838 1.10226L11.2626 2.51646C11.5908 2.18828 12.0359 2.00391 12.5 2.00391V0.00390625ZM9.84838 1.10226L8.43416 -0.311953C7.35583 0.766381 6.75004 2.22891 6.75004 3.75391H8.75004H10.75C10.75 3.28977 10.9344 2.84465 11.2626 2.51646L9.84838 1.10226ZM8.75004 3.75391H6.75004V5.24391H8.75004H10.75V3.75391H8.75004ZM21.25 5.24391L21.4041 3.24985C17.141 2.92039 12.859 2.92039 8.59593 3.24985L8.75004 5.24391L8.90415 7.23796C12.962 6.92435 17.038 6.92435 21.0959 7.23796L21.25 5.24391ZM15 16.2539V18.2539H15.0133V16.2539V14.2539H15V16.2539ZM15.0133 16.2539H13.0133V16.2672H15.0133H17.0133V16.2539H15.0133ZM15.0133 16.2672V14.2672H15V16.2672V18.2672H15.0133V16.2672ZM15 16.2672H17V16.2539H15H13V16.2672H15Z" fill="url(#paint0_linear_153_6810)" mask="url(#path-1-inside-1_153_6810)"/>
<defs>
<linearGradient id="paint0_linear_153_6810" x1="5.21739" y1="6.25391" x2="21.8" y2="19.2316" gradientUnits="userSpaceOnUse">
<stop stop-color="#9AA8FF"/>
<stop offset="1" stop-color="#203FFC"/>
</linearGradient>
</defs>
</svg>
