<svg width="38" height="32" viewBox="0 0 38 32" fill="none" xmlns="http://www.w3.org/2000/svg">
<mask id="path-1-inside-1_154_8394" fill="white">
<path d="M4.85826 12.2334C4.35571 16.1033 4.05626 19.9971 3.96115 23.8987C9.22101 26.1088 14.2572 28.8231 19 32.0039C23.7434 28.823 28.7802 26.1087 34.0407 23.8987C33.9455 19.9971 33.646 16.1033 33.1436 12.2334M4.85643 12.2334C3.25152 11.6907 1.6321 11.1925 0 10.7392C5.96255 6.53388 12.3274 2.93764 19 0.00390625C25.6725 2.93702 32.0374 6.53265 38 10.7374C36.3629 11.1932 34.7423 11.6931 33.1436 12.2334M4.85643 12.2334C9.73226 13.8824 14.4631 15.937 19 18.3757C23.5362 15.9369 28.2683 13.8824 33.1436 12.2334M9.40773 21.1528C9.77116 21.1528 10.1197 21.0076 10.3767 20.7491C10.6337 20.4906 10.7781 20.14 10.7781 19.7744C10.7781 19.4088 10.6337 19.0582 10.3767 18.7997C10.1197 18.5412 9.77116 18.396 9.40773 18.396C9.0443 18.396 8.69575 18.5412 8.43877 18.7997C8.18178 19.0582 8.03741 19.4088 8.03741 19.7744C8.03741 20.14 8.18178 20.4906 8.43877 20.7491C8.69575 21.0076 9.0443 21.1528 9.40773 21.1528ZM9.40773 21.1528V14.3985C12.5078 12.4601 15.7099 10.6919 19 9.1016M6.19752 30.3296C7.21699 29.3066 8.02542 28.091 8.57634 26.7527C9.12725 25.4144 9.4098 23.9798 9.40773 22.5313V19.7744"/>
</mask>
<path d="M3.96115 23.8987L1.96174 23.8499L1.92849 25.214L3.18639 25.7425L3.96115 23.8987ZM19 32.0039L17.886 33.6649L19 34.412L20.1139 33.665L19 32.0039ZM34.0407 23.8987L34.8153 25.7426L36.0734 25.2141L36.0401 23.8499L34.0407 23.8987ZM33.1436 12.2334L32.5032 10.3387L32.5028 10.3389L33.1436 12.2334ZM4.85643 12.2334L5.49717 10.3388L5.49707 10.3388L4.85643 12.2334ZM0 10.7392L-1.15272 9.10479L-4.60124 11.537L-0.5352 12.6662L0 10.7392ZM19 0.00390625L19.8048 -1.82701L18.9999 -2.18083L18.195 -1.82695L19 0.00390625ZM38 10.7374L38.5364 12.6641L42.5987 11.533L39.1526 9.10287L38 10.7374ZM19 18.3757L18.053 20.1374L19.0001 20.6464L19.9471 20.1373L19 18.3757ZM10.7781 19.7744H12.7781H10.7781ZM8.03741 19.7744H6.03741H8.03741ZM9.40773 14.3985L8.34741 12.7027L7.40773 13.2902V14.3985H9.40773ZM9.40773 22.5313H7.40773L7.40773 22.5341L9.40773 22.5313ZM4.85826 12.2334L2.87491 11.9759C2.36336 15.915 2.05855 19.8785 1.96174 23.8499L3.96115 23.8987L5.96056 23.9474C6.05396 20.1157 6.34805 16.2916 6.8416 12.491L4.85826 12.2334ZM3.96115 23.8987L3.18639 25.7425C8.32744 27.9027 13.25 30.5557 17.886 33.6649L19 32.0039L20.114 30.3429C15.2643 27.0904 10.1146 24.3149 4.73591 22.0548L3.96115 23.8987ZM19 32.0039L20.1139 33.665C24.7505 30.5557 29.6737 27.9027 34.8153 25.7426L34.0407 23.8987L33.266 22.0548C27.8867 24.3147 22.7363 27.0902 17.8861 30.3428L19 32.0039ZM34.0407 23.8987L36.0401 23.8499C35.9432 19.8785 35.6384 15.915 35.1269 11.9759L33.1436 12.2334L31.1602 12.4909C31.6537 16.2916 31.9478 20.1157 32.0413 23.9475L34.0407 23.8987ZM4.85643 12.2334L5.49707 10.3388C3.85733 9.78434 2.20274 9.27525 0.5352 8.81213L0 10.7392L-0.5352 12.6662C1.06145 13.1097 2.64571 13.5971 4.21578 14.128L4.85643 12.2334ZM0 10.7392L1.15272 12.3736C7.00631 8.24512 13.2547 4.71472 19.805 1.83476L19 0.00390625L18.195 -1.82695C11.4001 1.16056 4.9188 4.82264 -1.15272 9.10479L0 10.7392ZM19 0.00390625L18.1952 1.83482C24.7454 4.71417 30.9938 8.24397 36.8474 12.3718L38 10.7374L39.1526 9.10287C33.081 4.82133 26.5997 1.15987 19.8048 -1.82701L19 0.00390625ZM38 10.7374L37.4636 8.81064C35.7911 9.2763 34.1358 9.78691 32.5032 10.3387L33.1436 12.2334L33.784 14.1281C35.3488 13.5992 36.9348 13.11 38.5364 12.6641L38 10.7374ZM4.85643 12.2334L4.21568 14.128C8.98585 15.7413 13.6143 17.7513 18.053 20.1374L19 18.3757L19.947 16.6141C15.312 14.1226 10.4787 12.0236 5.49717 10.3388L4.85643 12.2334ZM19 18.3757L19.9471 20.1373C24.385 17.7513 29.0146 15.7413 33.7844 14.128L33.1436 12.2334L32.5028 10.3389C27.522 12.0235 22.6875 14.1225 18.0529 16.6142L19 18.3757ZM9.40773 21.1528V23.1528C10.3054 23.1528 11.1639 22.794 11.7951 22.1591L10.3767 20.7491L8.95831 19.3391C9.07548 19.2212 9.23691 19.1528 9.40773 19.1528V21.1528ZM10.3767 20.7491L11.7951 22.1591C12.4258 21.5247 12.7781 20.6666 12.7781 19.7744H10.7781H8.77806C8.77806 19.6133 8.84155 19.4565 8.95831 19.3391L10.3767 20.7491ZM10.7781 19.7744H12.7781C12.7781 18.8822 12.4258 18.0241 11.7951 17.3897L10.3767 18.7997L8.95831 20.2097C8.84155 20.0923 8.77806 19.9354 8.77806 19.7744H10.7781ZM10.3767 18.7997L11.7951 17.3897C11.1639 16.7548 10.3054 16.396 9.40773 16.396V18.396V20.396C9.23691 20.396 9.07548 20.3276 8.95831 20.2097L10.3767 18.7997ZM9.40773 18.396V16.396C8.51004 16.396 7.65152 16.7548 7.02038 17.3897L8.43877 18.7997L9.85715 20.2097C9.73998 20.3276 9.57856 20.396 9.40773 20.396V18.396ZM8.43877 18.7997L7.02038 17.3897C6.38964 18.0241 6.03741 18.8822 6.03741 19.7744H8.03741H10.0374C10.0374 19.9354 9.97392 20.0923 9.85715 20.2097L8.43877 18.7997ZM8.03741 19.7744H6.03741C6.03741 20.6666 6.38964 21.5247 7.02038 22.1591L8.43877 20.7491L9.85715 19.3391C9.97392 19.4565 10.0374 19.6133 10.0374 19.7744H8.03741ZM8.43877 20.7491L7.02038 22.1591C7.65152 22.794 8.51004 23.1528 9.40773 23.1528V21.1528V19.1528C9.57856 19.1528 9.73998 19.2212 9.85715 19.3391L8.43877 20.7491ZM9.40773 21.1528H11.4077V14.3985H9.40773H7.40773V21.1528H9.40773ZM9.40773 14.3985L10.4681 16.0943C13.5068 14.1942 16.6455 12.4611 19.8704 10.9023L19 9.1016L18.1296 7.30092C14.7744 8.92273 11.5088 10.726 8.34741 12.7027L9.40773 14.3985ZM6.19752 30.3296L7.61416 31.7413C8.81965 30.5317 9.77496 29.095 10.4258 27.514L8.57634 26.7527L6.72691 25.9914C6.27587 27.087 5.61433 28.0815 4.78087 28.9178L6.19752 30.3296ZM8.57634 26.7527L10.4258 27.514C11.0766 25.9331 11.4102 24.2388 11.4077 22.5284L9.40773 22.5313L7.40773 22.5341C7.40943 23.7207 7.17795 24.8957 6.72691 25.9914L8.57634 26.7527ZM9.40773 22.5313H11.4077V19.7744H9.40773H7.40773V22.5313H9.40773Z" fill="url(#paint0_linear_154_8394)" mask="url(#path-1-inside-1_154_8394)"/>
<defs>
<linearGradient id="paint0_linear_154_8394" x1="6.6087" y1="6.67057" x2="24.7821" y2="23.56" gradientUnits="userSpaceOnUse">
<stop stop-color="#9AA8FF"/>
<stop offset="1" stop-color="#203FFC"/>
</linearGradient>
</defs>
</svg>
