<svg width="44" height="44" viewBox="0 0 44 44" fill="none" xmlns="http://www.w3.org/2000/svg">
<path d="M21.4104 21.4111C21.633 21.1885 21.9637 21.1109 22.2639 21.2109L38.7639 26.7109C39.0431 26.8043 39.2495 27.036 39.3127 27.3174L39.3303 27.4414C39.3541 27.7788 39.1724 28.096 38.8723 28.2461L32.0852 31.6387L31.7874 31.7881L31.6379 32.0859L28.2454 38.873C28.0953 39.1731 27.778 39.3548 27.4407 39.3311C27.1048 39.307 26.8169 39.0839 26.7102 38.7646L21.2102 22.2646C21.1101 21.9644 21.1878 21.6337 21.4104 21.4111ZM23.9485 25.2139L26.8899 34.0381L27.6526 36.3281L28.7327 34.1699L30.4211 30.7949C30.5018 30.6336 30.6329 30.5025 30.7942 30.4219L34.1692 28.7334L36.3274 27.6533L34.0374 26.8906L25.2131 23.9492L23.3157 23.3164L23.9485 25.2139Z" fill="#203FFC" stroke="url(#paint0_linear_280_4567)" stroke-width="2"/>
<path d="M13.7107 29.1104C14.036 28.7852 14.563 28.7853 14.8884 29.1104C15.2139 29.4358 15.2139 29.9636 14.8884 30.2891L10.8552 34.3223C10.5292 34.6477 10.0013 34.647 9.67651 34.3223C9.35226 33.9977 9.35172 33.4704 9.67651 33.1445L13.7107 29.1104ZM5.49976 21.166H10.9998C11.4599 21.166 11.8336 21.5389 11.8337 21.999C11.8337 22.4593 11.46 22.833 10.9998 22.833H5.49976C5.03967 22.8328 4.66675 22.4592 4.66675 21.999C4.66692 21.539 5.03978 21.1662 5.49976 21.166ZM9.67651 9.67578C10.0012 9.35114 10.5292 9.35071 10.8552 9.67578L14.8884 13.71C15.2139 14.0354 15.2139 14.5623 14.8884 14.8877C14.563 15.2131 14.0361 15.2131 13.7107 14.8877L9.67651 10.8545H9.67749C9.35194 10.5285 9.35171 10.0006 9.67651 9.67578ZM33.1443 9.67676C33.4701 9.35126 33.9982 9.35129 34.323 9.67578C34.6275 9.98029 34.6467 10.4633 34.3796 10.791L34.323 10.8545L30.2898 14.8877C29.9644 15.2131 29.4365 15.2131 29.1111 14.8877C28.786 14.5623 28.7859 14.0353 29.1111 13.71L33.1443 9.67676ZM21.9998 4.66602C22.4599 4.66602 22.8336 5.03894 22.8337 5.49902V10.999C22.8337 11.4593 22.46 11.833 21.9998 11.833C21.5397 11.8328 21.1667 11.4592 21.1667 10.999V5.49902C21.1669 5.03904 21.5398 4.66619 21.9998 4.66602Z" fill="#203FFC" stroke="url(#paint1_linear_280_4567)" stroke-width="2"/>
<defs>
<linearGradient id="paint0_linear_280_4567" x1="23.6742" y1="24.3691" x2="42.2076" y2="35.1701" gradientUnits="userSpaceOnUse">
<stop stop-color="#9AA8FF"/>
<stop offset="1" stop-color="#203FFC"/>
</linearGradient>
<linearGradient id="paint1_linear_280_4567" x1="9.21461" y1="10.3119" x2="38.5331" y2="27.3985" gradientUnits="userSpaceOnUse">
<stop stop-color="#9AA8FF"/>
<stop offset="1" stop-color="#203FFC"/>
</linearGradient>
</defs>
</svg>
