<svg width="15" height="14" viewBox="0 0 15 14" fill="none" xmlns="http://www.w3.org/2000/svg">
<path d="M6.21237 2.80577H13.6715M6.21237 2.80577C6.21237 3.11012 6.09147 3.402 5.87626 3.61721C5.66105 3.83242 5.36916 3.95333 5.06481 3.95333C4.76045 3.95333 4.46857 3.83242 4.25336 3.61721C4.03815 3.402 3.91724 3.11012 3.91724 2.80577M6.21237 2.80577C6.21237 2.50141 6.09147 2.20953 5.87626 1.99432C5.66105 1.77911 5.36916 1.6582 5.06481 1.6582C4.76045 1.6582 4.46857 1.77911 4.25336 1.99432C4.03815 2.20953 3.91724 2.50141 3.91724 2.80577M3.91724 2.80577H1.04834M6.21237 11.9863H13.6715M6.21237 11.9863C6.21237 12.2906 6.09147 12.5825 5.87626 12.7977C5.66105 13.0129 5.36916 13.1338 5.06481 13.1338C4.76045 13.1338 4.46857 13.0129 4.25336 12.7977C4.03815 12.5825 3.91724 12.2906 3.91724 11.9863M6.21237 11.9863C6.21237 11.6819 6.09147 11.39 5.87626 11.1748C5.66105 10.9596 5.36916 10.8387 5.06481 10.8387C4.76045 10.8387 4.46857 10.9596 4.25336 11.1748C4.03815 11.39 3.91724 11.6819 3.91724 11.9863M3.91724 11.9863H1.04834M10.8026 7.39601H13.6715M10.8026 7.39601C10.8026 7.70037 10.6817 7.99225 10.4665 8.20746C10.2513 8.42267 9.95941 8.54357 9.65505 8.54357C9.3507 8.54357 9.05882 8.42267 8.84361 8.20746C8.6284 7.99225 8.50749 7.70037 8.50749 7.39601M10.8026 7.39601C10.8026 7.09166 10.6817 6.79977 10.4665 6.58456C10.2513 6.36935 9.95941 6.24845 9.65505 6.24845C9.3507 6.24845 9.05882 6.36935 8.84361 6.58456C8.6284 6.79977 8.50749 7.09166 8.50749 7.39601M8.50749 7.39601H1.04834" stroke="#888888" stroke-width="1.44544" stroke-linecap="round" stroke-linejoin="round"/>
</svg>
