<svg width="44" height="28" viewBox="0 0 44 28" fill="none" xmlns="http://www.w3.org/2000/svg">
<mask id="path-1-outside-1_280_4552" maskUnits="userSpaceOnUse" x="-1" y="0.166016" width="46" height="28" fill="black">
<rect fill="white" x="-1" y="0.166016" width="46" height="28"/>
<path d="M23.8333 12.166C24.9211 12.166 25.9845 11.8434 26.889 11.2391C27.7934 10.6348 28.4984 9.77577 28.9147 8.77078C29.331 7.76578 29.4399 6.65992 29.2277 5.59302C29.0154 4.52613 28.4916 3.54612 27.7224 2.77693C26.9532 2.00774 25.9732 1.48392 24.9063 1.2717C23.8394 1.05948 22.7336 1.1684 21.7286 1.58468C20.7236 2.00096 19.8646 2.70591 19.2603 3.61038C18.6559 4.51485 18.3333 5.57822 18.3333 6.66602C18.3333 8.12471 18.9128 9.52366 19.9442 10.5551C20.9757 11.5866 22.3746 12.166 23.8333 12.166ZM23.8333 4.83268C24.1959 4.83268 24.5504 4.94021 24.8519 5.14166C25.1534 5.34311 25.3884 5.62943 25.5271 5.96443C25.6659 6.29943 25.7022 6.66805 25.6314 7.02368C25.5607 7.37932 25.3861 7.70598 25.1297 7.96238C24.8733 8.21878 24.5466 8.39339 24.191 8.46413C23.8354 8.53486 23.4667 8.49856 23.1317 8.3598C22.7967 8.22104 22.5104 7.98605 22.309 7.68456C22.1075 7.38307 22 7.02862 22 6.66602C22 6.17979 22.1932 5.71347 22.537 5.36966C22.8808 5.02584 23.3471 4.83268 23.8333 4.83268ZM31.3683 11.9094C32.4409 10.3712 33.016 8.54118 33.016 6.66602C33.016 4.79085 32.4409 2.9608 31.3683 1.42268C31.8955 1.25265 32.4461 1.16605 33 1.16602C34.4587 1.16602 35.8576 1.74548 36.8891 2.77693C37.9205 3.80838 38.5 5.20733 38.5 6.66602C38.5 8.12471 37.9205 9.52366 36.8891 10.5551C35.8576 11.5866 34.4587 12.166 33 12.166C32.4461 12.166 31.8955 12.0794 31.3683 11.9094ZM23.8333 15.8327C12.8333 15.8327 12.8333 23.166 12.8333 23.166V26.8327H34.8333V23.166C34.8333 23.166 34.8333 15.8327 23.8333 15.8327ZM16.5 23.166C16.5 22.6344 17.0867 19.4994 23.8333 19.4994C30.25 19.4994 31.0567 22.3594 31.1667 23.166M44 23.166V26.8327H38.5V23.166C38.4572 21.8032 38.1433 20.4626 37.5767 19.2224C37.0101 17.9822 36.2022 16.8672 35.2 15.9427C44 16.841 44 23.166 44 23.166ZM14.6667 13.9994H9.16667V19.4994H5.5V13.9994H0V10.3327H5.5V4.83268H9.16667V10.3327H14.6667V13.9994Z"/>
</mask>
<path d="M23.8333 12.166C24.9211 12.166 25.9845 11.8434 26.889 11.2391C27.7934 10.6348 28.4984 9.77577 28.9147 8.77078C29.331 7.76578 29.4399 6.65992 29.2277 5.59302C29.0154 4.52613 28.4916 3.54612 27.7224 2.77693C26.9532 2.00774 25.9732 1.48392 24.9063 1.2717C23.8394 1.05948 22.7336 1.1684 21.7286 1.58468C20.7236 2.00096 19.8646 2.70591 19.2603 3.61038C18.6559 4.51485 18.3333 5.57822 18.3333 6.66602C18.3333 8.12471 18.9128 9.52366 19.9442 10.5551C20.9757 11.5866 22.3746 12.166 23.8333 12.166ZM23.8333 4.83268C24.1959 4.83268 24.5504 4.94021 24.8519 5.14166C25.1534 5.34311 25.3884 5.62943 25.5271 5.96443C25.6659 6.29943 25.7022 6.66805 25.6314 7.02368C25.5607 7.37932 25.3861 7.70598 25.1297 7.96238C24.8733 8.21878 24.5466 8.39339 24.191 8.46413C23.8354 8.53486 23.4667 8.49856 23.1317 8.3598C22.7967 8.22104 22.5104 7.98605 22.309 7.68456C22.1075 7.38307 22 7.02862 22 6.66602C22 6.17979 22.1932 5.71347 22.537 5.36966C22.8808 5.02584 23.3471 4.83268 23.8333 4.83268ZM31.3683 11.9094C32.4409 10.3712 33.016 8.54118 33.016 6.66602C33.016 4.79085 32.4409 2.9608 31.3683 1.42268C31.8955 1.25265 32.4461 1.16605 33 1.16602C34.4587 1.16602 35.8576 1.74548 36.8891 2.77693C37.9205 3.80838 38.5 5.20733 38.5 6.66602C38.5 8.12471 37.9205 9.52366 36.8891 10.5551C35.8576 11.5866 34.4587 12.166 33 12.166C32.4461 12.166 31.8955 12.0794 31.3683 11.9094ZM23.8333 15.8327C12.8333 15.8327 12.8333 23.166 12.8333 23.166V26.8327H34.8333V23.166C34.8333 23.166 34.8333 15.8327 23.8333 15.8327ZM16.5 23.166C16.5 22.6344 17.0867 19.4994 23.8333 19.4994C30.25 19.4994 31.0567 22.3594 31.1667 23.166M44 23.166V26.8327H38.5V23.166C38.4572 21.8032 38.1433 20.4626 37.5767 19.2224C37.0101 17.9822 36.2022 16.8672 35.2 15.9427C44 16.841 44 23.166 44 23.166ZM14.6667 13.9994H9.16667V19.4994H5.5V13.9994H0V10.3327H5.5V4.83268H9.16667V10.3327H14.6667V13.9994Z" fill="#203FFC"/>
<path d="M23.8333 12.166V11.166V12.166ZM18.3333 6.66602H17.3333H18.3333ZM23.8333 4.83268V5.83268V4.83268ZM31.3683 11.9094L30.5481 11.3374L29.7749 12.4461L31.0614 12.8611L31.3683 11.9094ZM31.3683 1.42268L31.0614 0.47096L29.7749 0.885892L30.5481 1.99468L31.3683 1.42268ZM33 1.16602V0.166018H32.9999L33 1.16602ZM38.5 6.66602H39.5H38.5ZM33 12.166L32.9999 13.166H33V12.166ZM12.8333 26.8327H11.8333V27.8327H12.8333V26.8327ZM34.8333 26.8327V27.8327H35.8333V26.8327H34.8333ZM44 23.166H43H44ZM44 26.8327V27.8327H45V26.8327H44ZM38.5 26.8327H37.5V27.8327H38.5V26.8327ZM38.5 23.166H39.5V23.1503L39.4995 23.1346L38.5 23.166ZM35.2 15.9427L35.3016 14.9479L32.3166 14.6431L34.5219 16.6777L35.2 15.9427ZM14.6667 13.9994V14.9994H15.6667V13.9994H14.6667ZM9.16667 13.9994V12.9994H8.16667V13.9994H9.16667ZM9.16667 19.4994V20.4994H10.1667V19.4994H9.16667ZM5.5 19.4994H4.5V20.4994H5.5V19.4994ZM5.5 13.9994H6.5V12.9994H5.5V13.9994ZM0 13.9994H-1V14.9994H0V13.9994ZM0 10.3327V9.33268H-1V10.3327H0ZM5.5 10.3327V11.3327H6.5V10.3327H5.5ZM5.5 4.83268V3.83268H4.5V4.83268H5.5ZM9.16667 4.83268H10.1667V3.83268H9.16667V4.83268ZM9.16667 10.3327H8.16667V11.3327H9.16667V10.3327ZM14.6667 10.3327H15.6667V9.33268H14.6667V10.3327ZM23.8333 12.166V13.166C25.1189 13.166 26.3756 12.7848 27.4445 12.0706L26.889 11.2391L26.3334 10.4076C25.5934 10.9021 24.7234 11.166 23.8333 11.166V12.166ZM26.889 11.2391L27.4445 12.0706C28.5135 11.3563 29.3466 10.3412 29.8386 9.15346L28.9147 8.77078L27.9908 8.38809C27.6502 9.21036 27.0734 9.91316 26.3334 10.4076L26.889 11.2391ZM28.9147 8.77078L29.8386 9.15346C30.3305 7.96574 30.4592 6.65881 30.2084 5.39793L29.2277 5.59302L28.2469 5.78811C28.4205 6.66103 28.3314 7.56583 27.9908 8.38809L28.9147 8.77078ZM29.2277 5.59302L30.2084 5.39793C29.9576 4.13705 29.3386 2.97887 28.4295 2.06982L27.7224 2.77693L27.0153 3.48404C27.6447 4.11337 28.0732 4.9152 28.2469 5.78811L29.2277 5.59302ZM27.7224 2.77693L28.4295 2.06982C27.5205 1.16078 26.3623 0.541718 25.1014 0.290914L24.9063 1.2717L24.7112 2.25248C25.5842 2.42612 26.386 2.8547 27.0153 3.48404L27.7224 2.77693ZM24.9063 1.2717L25.1014 0.290914C23.8405 0.0401099 22.5336 0.168832 21.3459 0.660801L21.7286 1.58468L22.1113 2.50856C22.9335 2.16797 23.8383 2.07885 24.7112 2.25248L24.9063 1.2717ZM21.7286 1.58468L21.3459 0.660801C20.1582 1.15277 19.143 1.98589 18.4288 3.05481L19.2603 3.61038L20.0917 4.16595C20.5862 3.42593 21.289 2.84915 22.1113 2.50856L21.7286 1.58468ZM19.2603 3.61038L18.4288 3.05481C17.7146 4.12373 17.3333 5.38044 17.3333 6.66602H18.3333H19.3333C19.3333 5.776 19.5973 4.90597 20.0917 4.16595L19.2603 3.61038ZM18.3333 6.66602H17.3333C17.3333 8.38993 18.0182 10.0432 19.2371 11.2622L19.9442 10.5551L20.6514 9.848C19.8074 9.00409 19.3333 7.85949 19.3333 6.66602H18.3333ZM19.9442 10.5551L19.2371 11.2622C20.4561 12.4812 22.1094 13.166 23.8333 13.166V12.166V11.166C22.6399 11.166 21.4953 10.6919 20.6514 9.848L19.9442 10.5551ZM23.8333 4.83268V5.83268C23.9982 5.83268 24.1593 5.88156 24.2963 5.97313L24.8519 5.14166L25.4074 4.31019C24.9415 3.99886 24.3937 3.83268 23.8333 3.83268V4.83268ZM24.8519 5.14166L24.2963 5.97313C24.4333 6.06469 24.5402 6.19484 24.6032 6.34712L25.5271 5.96443L26.451 5.58175C26.2365 5.06403 25.8734 4.62152 25.4074 4.31019L24.8519 5.14166ZM25.5271 5.96443L24.6032 6.34712C24.6663 6.49939 24.6828 6.66694 24.6507 6.82859L25.6314 7.02368L26.6122 7.21877C26.7215 6.66916 26.6654 6.09947 26.451 5.58175L25.5271 5.96443ZM25.6314 7.02368L24.6507 6.82859C24.6185 6.99024 24.5391 7.13873 24.4226 7.25527L25.1297 7.96238L25.8368 8.66949C26.2331 8.27324 26.5029 7.76839 26.6122 7.21877L25.6314 7.02368ZM25.1297 7.96238L24.4226 7.25527C24.306 7.37182 24.1576 7.45119 23.9959 7.48334L24.191 8.46413L24.3861 9.44491C24.9357 9.33559 25.4406 9.06574 25.8368 8.66949L25.1297 7.96238ZM24.191 8.46413L23.9959 7.48334C23.8343 7.51549 23.6667 7.49899 23.5144 7.43592L23.1317 8.3598L22.7491 9.28368C23.2668 9.49813 23.8365 9.55424 24.3861 9.44491L24.191 8.46413ZM23.1317 8.3598L23.5144 7.43592C23.3622 7.37285 23.232 7.26604 23.1404 7.12899L22.309 7.68456L21.4775 8.24013C21.7888 8.70607 22.2313 9.06923 22.7491 9.28368L23.1317 8.3598ZM22.309 7.68456L23.1404 7.12899C23.0489 6.99195 23 6.83084 23 6.66602H22H21C21 7.2264 21.1662 7.7742 21.4775 8.24013L22.309 7.68456ZM22 6.66602H23C23 6.445 23.0878 6.23304 23.2441 6.07676L22.537 5.36966L21.8299 4.66255C21.2985 5.1939 21 5.91457 21 6.66602H22ZM22.537 5.36966L23.2441 6.07676C23.4004 5.92048 23.6123 5.83268 23.8333 5.83268V4.83268V3.83268C23.0819 3.83268 22.3612 4.1312 21.8299 4.66255L22.537 5.36966ZM31.3683 11.9094L32.1886 12.4814C33.3782 10.7754 34.016 8.74575 34.016 6.66602H33.016H32.016C32.016 8.33662 31.5037 9.96703 30.5481 11.3374L31.3683 11.9094ZM33.016 6.66602H34.016C34.016 4.58629 33.3782 2.55659 32.1886 0.850684L31.3683 1.42268L30.5481 1.99468C31.5037 3.365 32.016 4.99542 32.016 6.66602H33.016ZM31.3683 1.42268L31.6753 2.37441C32.1033 2.23636 32.5503 2.16604 33.0001 2.16602L33 1.16602L32.9999 0.166018C32.3418 0.166056 31.6877 0.268945 31.0614 0.47096L31.3683 1.42268ZM33 1.16602V2.16602C34.1935 2.16602 35.3381 2.64012 36.182 3.48404L36.8891 2.77693L37.5962 2.06982C36.3772 0.850837 34.7239 0.166018 33 0.166018V1.16602ZM36.8891 2.77693L36.182 3.48404C37.0259 4.32795 37.5 5.47254 37.5 6.66602H38.5H39.5C39.5 4.94211 38.8152 3.28881 37.5962 2.06982L36.8891 2.77693ZM38.5 6.66602H37.5C37.5 7.85949 37.0259 9.00409 36.182 9.848L36.8891 10.5551L37.5962 11.2622C38.8152 10.0432 39.5 8.38993 39.5 6.66602H38.5ZM36.8891 10.5551L36.182 9.848C35.3381 10.6919 34.1935 11.166 33 11.166V12.166V13.166C34.7239 13.166 36.3772 12.4812 37.5962 11.2622L36.8891 10.5551ZM33 12.166L33.0001 11.166C32.5503 11.166 32.1033 11.0957 31.6753 10.9576L31.3683 11.9094L31.0614 12.8611C31.6877 13.0631 32.3418 13.166 32.9999 13.166L33 12.166ZM23.8333 15.8327V14.8327C18.0893 14.8327 15.011 16.7625 13.4083 18.8994C12.6243 19.9447 12.2318 20.9906 12.0351 21.7777C11.9365 22.1717 11.8862 22.5042 11.8605 22.7444C11.8476 22.8647 11.8408 22.9624 11.8373 23.0337C11.8355 23.0694 11.8345 23.0986 11.834 23.1208C11.8337 23.1319 11.8335 23.1412 11.8334 23.1488C11.8334 23.1526 11.8334 23.1559 11.8334 23.1588C11.8333 23.1602 11.8333 23.1615 11.8333 23.1627C11.8333 23.1633 11.8333 23.1642 11.8333 23.1645C11.8333 23.1653 11.8333 23.166 12.8333 23.166C13.8333 23.166 13.8333 23.1667 13.8333 23.1674C13.8333 23.1676 13.8333 23.1682 13.8333 23.1686C13.8333 23.1694 13.8333 23.17 13.8333 23.1706C13.8333 23.1717 13.8333 23.1724 13.8333 23.1726C13.8333 23.1731 13.8333 23.1719 13.8334 23.1692C13.8335 23.1636 13.8339 23.1516 13.8348 23.1336C13.8366 23.0976 13.8405 23.0377 13.8491 22.9574C13.8664 22.7966 13.902 22.5561 13.9754 22.2627C14.1223 21.6748 14.4173 20.8874 15.0083 20.0994C16.1557 18.5695 18.5773 16.8327 23.8333 16.8327V15.8327ZM12.8333 23.166H11.8333V26.8327H12.8333H13.8333V23.166H12.8333ZM12.8333 26.8327V27.8327H34.8333V26.8327V25.8327H12.8333V26.8327ZM34.8333 26.8327H35.8333V23.166H34.8333H33.8333V26.8327H34.8333ZM34.8333 23.166C35.8333 23.166 35.8333 23.1653 35.8333 23.1645C35.8333 23.1642 35.8333 23.1633 35.8333 23.1627C35.8333 23.1615 35.8333 23.1602 35.8333 23.1588C35.8333 23.1559 35.8333 23.1526 35.8332 23.1488C35.8331 23.1412 35.833 23.1319 35.8327 23.1208C35.8322 23.0986 35.8312 23.0694 35.8294 23.0337C35.8258 22.9624 35.819 22.8647 35.8062 22.7444C35.7804 22.5042 35.7301 22.1717 35.6316 21.7777C35.4348 20.9906 35.0423 19.9447 34.2583 18.8994C32.6557 16.7625 29.5773 14.8327 23.8333 14.8327V15.8327V16.8327C29.0893 16.8327 31.511 18.5695 32.6583 20.0994C33.2493 20.8874 33.5443 21.6748 33.6913 22.2627C33.7647 22.5561 33.8003 22.7966 33.8175 22.9574C33.8261 23.0377 33.8301 23.0976 33.8319 23.1336C33.8328 23.1516 33.8332 23.1636 33.8333 23.1692C33.8334 23.1719 33.8334 23.1731 33.8334 23.1726C33.8334 23.1724 33.8334 23.1717 33.8333 23.1706C33.8333 23.17 33.8333 23.1694 33.8333 23.1686C33.8333 23.1682 33.8333 23.1676 33.8333 23.1674C33.8333 23.1667 33.8333 23.166 34.8333 23.166ZM16.5 23.166H17.5C17.5 23.1778 17.5054 23.0176 17.614 22.7678C17.7173 22.5305 17.9133 22.2139 18.2882 21.8919C19.0353 21.2503 20.603 20.4994 23.8333 20.4994V19.4994V18.4994C20.317 18.4994 18.218 19.3159 16.9852 20.3747C15.752 21.4337 15.5 22.6389 15.5 23.166H16.5ZM23.8333 19.4994V20.4994C26.9043 20.4994 28.4588 21.1845 29.2394 21.8104C30.0042 22.4235 30.1451 23.0755 30.1758 23.3011L31.1667 23.166L32.1575 23.0309C32.0783 22.4499 31.7608 21.2685 30.4906 20.25C29.2362 19.2442 27.179 18.4994 23.8333 18.4994V19.4994ZM44 23.166H43V26.8327H44H45V23.166H44ZM44 26.8327V25.8327H38.5V26.8327V27.8327H44V26.8327ZM38.5 26.8327H39.5V23.166H38.5H37.5V26.8327H38.5ZM38.5 23.166L39.4995 23.1346C39.4525 21.639 39.108 20.1678 38.4863 18.8068L37.5767 19.2224L36.6671 19.6379C37.1785 20.7573 37.4618 21.9674 37.5005 23.1974L38.5 23.166ZM37.5767 19.2224L38.4863 18.8068C37.8645 17.4458 36.9778 16.2223 35.8781 15.2077L35.2 15.9427L34.5219 16.6777C35.4265 17.5122 36.1557 18.5185 36.6671 19.6379L37.5767 19.2224ZM35.2 15.9427L35.0984 16.9375C39.23 17.3593 41.1434 19.0226 42.0614 20.4359C42.5341 21.1637 42.7699 21.8669 42.8872 22.3846C42.9457 22.6428 42.974 22.8519 42.9876 22.9904C42.9944 23.0595 42.9975 23.1106 42.9989 23.1409C42.9996 23.156 42.9999 23.1659 43 23.1702C43 23.1724 43 23.1731 43 23.1725C43 23.1721 43 23.1714 43 23.1703C43 23.1698 43 23.1692 43 23.1685C43 23.1681 43 23.1675 43 23.1673C43 23.1667 43 23.166 44 23.166C45 23.166 45 23.1653 45 23.1646C45 23.1643 45 23.1636 45 23.163C45 23.1619 45 23.1607 45 23.1594C45 23.1568 44.9999 23.1538 44.9999 23.1504C44.9998 23.1436 44.9997 23.1353 44.9995 23.1255C44.999 23.1058 44.9982 23.0801 44.9968 23.0487C44.9939 22.9859 44.9884 22.9002 44.978 22.7946C44.9573 22.5836 44.9168 22.2916 44.8378 21.9428C44.6801 21.2465 44.366 20.3123 43.7386 19.3465C42.4566 17.3728 39.97 15.4244 35.3016 14.9479L35.2 15.9427ZM14.6667 13.9994V12.9994H9.16667V13.9994V14.9994H14.6667V13.9994ZM9.16667 13.9994H8.16667V19.4994H9.16667H10.1667V13.9994H9.16667ZM9.16667 19.4994V18.4994H5.5V19.4994V20.4994H9.16667V19.4994ZM5.5 19.4994H6.5V13.9994H5.5H4.5V19.4994H5.5ZM5.5 13.9994V12.9994H0V13.9994V14.9994H5.5V13.9994ZM0 13.9994H1V10.3327H0H-1V13.9994H0ZM0 10.3327V11.3327H5.5V10.3327V9.33268H0V10.3327ZM5.5 10.3327H6.5V4.83268H5.5H4.5V10.3327H5.5ZM5.5 4.83268V5.83268H9.16667V4.83268V3.83268H5.5V4.83268ZM9.16667 4.83268H8.16667V10.3327H9.16667H10.1667V4.83268H9.16667ZM9.16667 10.3327V11.3327H14.6667V10.3327V9.33268H9.16667V10.3327ZM14.6667 10.3327H13.6667V13.9994H14.6667H15.6667V10.3327H14.6667Z" fill="url(#paint0_linear_280_4552)" mask="url(#path-1-outside-1_280_4552)"/>
<defs>
<linearGradient id="paint0_linear_280_4552" x1="7.65217" y1="6.51324" x2="21.6587" y2="25.3046" gradientUnits="userSpaceOnUse">
<stop stop-color="#9AA8FF"/>
<stop offset="1" stop-color="#203FFC"/>
</linearGradient>
</defs>
</svg>
