<svg width="30" height="29" viewBox="0 0 30 29" fill="none" xmlns="http://www.w3.org/2000/svg">
<path d="M17.8076 1.08008C18.3399 1.08008 18.8638 1.21498 19.3301 1.47168C19.7964 1.72842 20.1909 2.09903 20.4756 2.54883C20.76 2.99847 20.9256 3.51287 20.958 4.04395C20.9904 4.57518 20.8879 5.10591 20.6602 5.58691L19.9844 7.01562H28.4961C28.5458 7.01562 28.5937 7.03516 28.6289 7.07031C28.6641 7.10547 28.6836 7.15339 28.6836 7.20312V12.2012C28.3234 12.1462 27.9573 12.1279 27.5908 12.1504C26.7231 12.2036 25.883 12.4754 25.1484 12.9404C24.4139 13.4055 23.8079 14.0489 23.3887 14.8105C22.9696 15.5721 22.75 16.4276 22.75 17.2969C22.75 18.1662 22.9695 19.0216 23.3887 19.7832C23.8079 20.5449 24.4139 21.1882 25.1484 21.6533C25.8829 22.1183 26.7232 22.3901 27.5908 22.4434C27.9574 22.4658 28.3233 22.4456 28.6836 22.3906V27.3906C28.6835 27.4403 28.664 27.4883 28.6289 27.5234C28.5938 27.5585 28.5457 27.5781 28.4961 27.5781H7.12109C7.07144 27.5781 7.02339 27.5585 6.98828 27.5234C6.95317 27.4883 6.93364 27.4403 6.93359 27.3906V19.4746L5.50586 20.1494C5.02481 20.377 4.49406 20.4798 3.96289 20.4473C3.4318 20.4147 2.91735 20.2485 2.46777 19.9639C2.01812 19.6792 1.64824 19.2846 1.3916 18.8184C1.13503 18.3522 1.00003 17.829 1 17.2969C1 16.7647 1.13497 16.2406 1.3916 15.7744C1.64823 15.3084 2.01825 14.9145 2.46777 14.6299C2.91738 14.3452 3.43175 14.1791 3.96289 14.1465C4.49396 14.1139 5.02488 14.2159 5.50586 14.4434L6.93359 15.1191V7.20312C6.93359 7.15349 6.95324 7.10546 6.98828 7.07031C7.02339 7.0352 7.07144 7.01568 7.12109 7.01562H15.6318L14.9561 5.58691C14.7283 5.1059 14.6248 4.57519 14.6572 4.04395C14.6897 3.51284 14.8562 2.99849 15.1406 2.54883C15.4253 2.09902 15.8198 1.72842 16.2861 1.47168C16.7523 1.21507 17.2755 1.08015 17.8076 1.08008Z" stroke="url(#paint0_linear_148_6752)" stroke-width="2"/>
<defs>
<linearGradient id="paint0_linear_148_6752" x1="5.1624" y1="6.01714" x2="21.0573" y2="18.9743" gradientUnits="userSpaceOnUse">
<stop stop-color="#9AA8FF"/>
<stop offset="1" stop-color="#203FFC"/>
</linearGradient>
</defs>
</svg>
