<svg width="29" height="31" viewBox="0 0 29 31" fill="none" xmlns="http://www.w3.org/2000/svg">
<path d="M14.25 1.08008C14.2813 1.08008 14.3123 1.08757 14.3398 1.10254L27.4023 8.25488C27.4317 8.27096 27.4565 8.29449 27.4736 8.32324C27.4822 8.33759 27.4887 8.3532 27.4932 8.36914L27.5 8.41895V22.6133C27.4995 22.646 27.4903 22.6779 27.4736 22.7061C27.4651 22.7205 27.4544 22.7336 27.4424 22.7451L27.4023 22.7754L15.25 29.4277V14.0801H13.25V29.4277L1.09766 22.7754C1.0682 22.7593 1.04352 22.7349 1.02637 22.7061C1.0178 22.6916 1.01125 22.6762 1.00684 22.6602L1 22.6113V8.41895C1.00008 8.38537 1.00922 8.3521 1.02637 8.32324C1.03498 8.30879 1.04559 8.29574 1.05762 8.28418L1.09766 8.25488L14.1592 1.10254L14.1602 1.10352C14.1877 1.08842 14.2185 1.08008 14.25 1.08008Z" stroke="url(#paint0_linear_148_6430)" stroke-width="2"/>
<defs>
<linearGradient id="paint0_linear_148_6430" x1="4.95652" y1="6.51181" x2="21.6469" y2="18.5701" gradientUnits="userSpaceOnUse">
<stop stop-color="#9AA8FF"/>
<stop offset="1" stop-color="#203FFC"/>
</linearGradient>
</defs>
</svg>
