<?xml version="1.0" encoding="utf-8"?>
<!-- Generator: Adobe Illustrator 24.0.0, SVG Export Plug-In . SVG Version: 6.00 Build 0)  -->
<svg version="1.1" id="Layer_1" xmlns="http://www.w3.org/2000/svg" xmlns:xlink="http://www.w3.org/1999/xlink" x="0px" y="0px"
	 viewBox="0 0 650.61 219.01" style="enable-background:new 0 0 650.61 219.01;" xml:space="preserve">
<style type="text/css">
	.st0{fill:#0088DB;}
	.st1{fill:#2D2D3F;}
</style>
<g>
	<g>
		<g>
			<path class="st0" d="M109.01,108.61l-12.79,7.96l36.12,22.48l2.68-1.66c5.46-3.4,8.67-8.73,8.67-14.39
				C143.68,108.17,123.29,99.71,109.01,108.61z"/>
			<path class="st0" d="M78.16,105.32l56.85-35.38c5.46-3.4,8.67-8.73,8.67-14.39c0-14.82-20.39-23.28-34.67-14.39L42.05,82.85
				L78.16,105.32z"/>
		</g>
		<path class="st1" d="M44.06,137.42l64.94,40.42c14.29,8.89,34.67,0.43,34.67-14.39v0c0-5.66-3.21-10.99-8.67-14.39L35.33,87.03
			v35.89C35.33,128.63,38.56,134,44.06,137.42z"/>
	</g>
	<g>
		<g>
			<path class="st1" d="M244.54,48.48v15.74H201v10.24h42.49v15.83H201v27.47h-18.81V48.48H244.54z"/>
			<path class="st1" d="M308.72,47.2c5.25,0,10.02,0.42,14.3,1.26c4.28,0.84,7.87,1.95,10.77,3.31c2.9,1.37,5.43,3.05,7.6,5.04
				c2.17,1.99,3.86,3.98,5.08,5.97c1.22,1.99,2.21,4.17,2.97,6.53c0.76,2.36,1.25,4.48,1.46,6.35c0.22,1.87,0.33,3.83,0.33,5.88v2.8
				c0,1.99-0.11,3.92-0.33,5.79c-0.22,1.87-0.7,4-1.46,6.39c-0.76,2.4-1.74,4.61-2.93,6.63c-1.19,2.02-2.88,4.05-5.08,6.07
				c-2.19,2.02-4.73,3.73-7.6,5.13c-2.87,1.4-6.46,2.54-10.77,3.41c-4.31,0.87-9.09,1.31-14.34,1.31h-2.57
				c-5.25,0-10.05-0.43-14.38-1.31c-4.33-0.87-7.94-2.01-10.81-3.41c-2.87-1.4-5.41-3.11-7.6-5.13c-2.19-2.02-3.9-4.04-5.12-6.07
				c-1.22-2.02-2.19-4.23-2.93-6.63c-0.73-2.4-1.2-4.53-1.42-6.39s-0.32-3.8-0.32-5.79v-2.8c0-2.05,0.11-4,0.32-5.83
				c0.22-1.83,0.69-3.95,1.42-6.35c0.73-2.4,1.71-4.59,2.93-6.58c1.22-1.99,2.91-3.98,5.08-5.97c2.17-1.99,4.7-3.67,7.6-5.04
				c2.9-1.37,6.51-2.47,10.85-3.31c4.33-0.84,9.13-1.26,14.38-1.26H308.72z M331.4,82.2c0-1.74-0.19-3.39-0.57-4.95
				c-0.38-1.56-1.11-3.17-2.19-4.85c-1.08-1.68-2.49-3.11-4.23-4.29s-4.09-2.16-7.07-2.94c-2.45-0.64-5.23-1.02-8.34-1.13
				c-0.67-0.02-2.09-0.03-2.55-0.02c-15.36,0.35-23.04,6.41-23.04,18.18v1.12c0,2.24,0.34,4.36,1.02,6.35
				c0.68,1.99,1.83,3.98,3.45,5.97c1.62,1.99,4.14,3.58,7.56,4.76c3.15,1.09,6.92,1.68,11.32,1.76c0.36,0.01,1.36,0,1.93-0.02
				c4.07-0.12,7.59-0.69,10.56-1.7c3.39-1.15,5.92-2.71,7.6-4.67c1.68-1.96,2.86-3.94,3.53-5.93c0.68-1.99,1.02-4.11,1.02-6.35V82.2
				z"/>
			<path class="st1" d="M440.81,99v18.82h-17.24v-12.21c0-4.23-0.86-7.28-2.58-9.18c-1.72-1.9-4.66-2.85-8.84-2.85h-22.39v24.24
				h-17.16V49.5h44.19c15.86,0,23.79,5.91,23.79,17.72v1.1c0,7.22-3.39,12.21-10.16,14.97c3.09,1.1,5.6,2.95,7.51,5.56
				C439.86,91.45,440.81,94.83,440.81,99z M422.69,71.63c0-1.96-0.56-3.55-1.69-4.77c-1.13-1.22-2.87-1.84-5.23-1.84h-26v13.41h26
				c2.36,0,4.1-0.61,5.23-1.84c1.13-1.22,1.69-2.85,1.69-4.87V71.63z"/>
			<path class="st1" d="M485.55,64.84h-26V48.41h71.19v16.43h-26.09v53.01h-19.1V64.84z"/>
			<path class="st1" d="M614.46,48.16v15.81h-45.13v10.29h44.07v15.9h-44.07v11.41h45.94v16.18H550.6v-69.6H614.46z"/>
		</g>
		<g>
			<path class="st0" d="M220.39,137.29h7.63l-10.38,33.8h-6.52l-7.58-18.93l-7.29,18.93h-6.52l-10.67-33.8h7.78l6.62,22.45
				l8.88-22.12h2.46l9.13,22.12L220.39,137.29z"/>
			<path class="st0" d="M250.57,164.28h13.47v6.81h-20.81v-33.8h20.28v6.76h-12.94v6.66h11.69v6.62h-11.69V164.28z"/>
			<path class="st0" d="M301.17,153.27c1.48,0.77,2.63,1.86,3.45,3.26c0.82,1.4,1.23,3,1.23,4.8c0,2.7-1.04,5.01-3.12,6.9
				c-2.08,1.9-4.58,2.85-7.51,2.85h-14.39v-33.8h14c2.9,0,5.31,0.83,7.24,2.49c1.93,1.66,2.9,3.73,2.9,6.2
				c0,1.45-0.34,2.82-1.01,4.1C303.3,151.37,302.36,152.43,301.17,153.27z M297.89,147.14c0-0.55-0.09-1.04-0.27-1.47
				c-0.18-0.43-0.43-0.81-0.75-1.13c-0.32-0.32-0.72-0.57-1.18-0.75c-0.47-0.18-0.99-0.26-1.57-0.26h-6.08v7.19h6.08
				c1.16,0,2.08-0.33,2.75-0.99C297.55,149.06,297.89,148.2,297.89,147.14z M294.51,164.37c1.19,0,2.16-0.35,2.9-1.06
				c0.74-0.71,1.11-1.62,1.11-2.75c0-1.09-0.37-2-1.11-2.7c-0.74-0.71-1.71-1.06-2.9-1.06h-6.47v7.58H294.51z"/>
			<path class="st0" d="M357.43,137.29c4.96,0,9.05,1.59,12.29,4.76c3.24,3.17,4.86,7.2,4.86,12.1c0,4.89-1.62,8.94-4.86,12.14
				c-3.23,3.2-7.33,4.8-12.29,4.8h-12.8v-33.8H357.43z M357.23,164.28c2.9,0,5.26-0.95,7.1-2.85c1.83-1.9,2.75-4.33,2.75-7.29
				c0-2.96-0.92-5.38-2.75-7.24c-1.84-1.87-4.2-2.8-7.1-2.8h-5.26v20.18H357.23z"/>
			<path class="st0" d="M398.38,164.28h13.47v6.81h-20.81v-33.8h20.28v6.76h-12.94v6.66h11.69v6.62h-11.69V164.28z"/>
			<path class="st0" d="M439.85,171.76c-3.93,0-7.09-1.04-9.49-3.11c-2.4-2.08-3.6-4.92-3.6-8.52h7.39c0,0.81,0.15,1.52,0.46,2.15
				c0.31,0.63,0.72,1.13,1.25,1.52c0.53,0.39,1.14,0.68,1.81,0.87c0.68,0.19,1.38,0.29,2.13,0.29c1.48,0,2.76-0.35,3.84-1.06
				s1.62-1.67,1.62-2.9c0-0.51-0.13-0.97-0.39-1.38c-0.26-0.4-0.55-0.72-0.89-0.97c-0.34-0.24-0.85-0.49-1.54-0.75
				c-0.69-0.26-1.28-0.45-1.76-0.58c-0.48-0.13-1.21-0.3-2.17-0.53c-0.77-0.19-1.35-0.34-1.74-0.44c-0.39-0.1-0.96-0.26-1.71-0.48
				c-0.76-0.23-1.34-0.43-1.74-0.6c-0.4-0.18-0.93-0.43-1.57-0.75c-0.65-0.32-1.14-0.64-1.5-0.97c-0.35-0.32-0.75-0.72-1.18-1.21
				c-0.44-0.48-0.76-0.99-0.99-1.52c-0.23-0.53-0.42-1.14-0.58-1.84c-0.16-0.69-0.24-1.43-0.24-2.2c0-3.22,1.09-5.71,3.28-7.49
				c2.19-1.77,5.18-2.65,8.98-2.65c3.83,0,6.82,0.97,8.96,2.9c2.14,1.93,3.21,4.59,3.21,7.97h-7.25c0-1.38-0.49-2.44-1.47-3.16
				c-0.98-0.72-2.2-1.09-3.65-1.09c-1.29,0-2.41,0.27-3.36,0.82c-0.95,0.55-1.43,1.34-1.43,2.37c0,0.48,0.12,0.91,0.36,1.28
				c0.24,0.37,0.52,0.68,0.85,0.92c0.32,0.24,0.82,0.48,1.5,0.72c0.68,0.24,1.25,0.42,1.71,0.53c0.47,0.11,1.17,0.28,2.1,0.51
				c1.03,0.26,1.8,0.46,2.32,0.6c0.51,0.14,1.25,0.39,2.22,0.72c0.97,0.34,1.71,0.67,2.24,0.99c0.53,0.32,1.15,0.75,1.86,1.28
				c0.71,0.53,1.25,1.11,1.62,1.74c0.37,0.63,0.69,1.38,0.97,2.27c0.27,0.89,0.41,1.84,0.41,2.87c0,2.35-0.59,4.36-1.78,6.04
				c-1.19,1.68-2.73,2.9-4.61,3.67C444.42,171.38,442.27,171.76,439.85,171.76z"/>
			<path class="st0" d="M469.16,171.09v-33.8h7.34v33.8H469.16z"/>
			<path class="st0" d="M509.68,153.41h18.01c-0.03,5.34-1.66,9.75-4.88,13.21c-3.22,3.46-7.36,5.19-12.41,5.19
				c-4.99,0-9.15-1.67-12.48-5c-3.33-3.33-5-7.52-5-12.58c0-5.09,1.64-9.3,4.93-12.65c3.28-3.35,7.42-5.02,12.41-5.02
				c4.22,0,7.9,1.2,11.06,3.6c3.16,2.4,5.12,5.5,5.89,9.3h-7.53c-0.48-1.22-1.18-2.28-2.08-3.16c-0.9-0.88-1.97-1.57-3.21-2.05
				s-2.57-0.72-3.98-0.72c-2.99,0-5.42,1-7.29,2.99s-2.8,4.57-2.8,7.73c0,2.06,0.42,3.9,1.25,5.51c0.84,1.61,2.02,2.86,3.55,3.77
				c1.53,0.9,3.29,1.35,5.29,1.35c1.45,0,2.82-0.24,4.11-0.72c1.29-0.48,2.39-1.17,3.31-2.05c0.92-0.89,1.58-1.89,2-3.02h-10.14
				V153.41z"/>
			<path class="st0" d="M565.4,137.29h7.15v33.8h-6.09l-15.31-21.1v21.1h-7.2v-33.8h6.62l14.82,20.62V137.29z"/>
			<path class="st0" d="M602.1,171.76c-3.93,0-7.09-1.04-9.49-3.11c-2.4-2.08-3.6-4.92-3.6-8.52h7.39c0,0.81,0.15,1.52,0.46,2.15
				c0.31,0.63,0.72,1.13,1.25,1.52c0.53,0.39,1.14,0.68,1.81,0.87c0.68,0.19,1.38,0.29,2.13,0.29c1.48,0,2.76-0.35,3.84-1.06
				c1.08-0.71,1.62-1.67,1.62-2.9c0-0.51-0.13-0.97-0.39-1.38c-0.26-0.4-0.55-0.72-0.89-0.97c-0.34-0.24-0.85-0.49-1.54-0.75
				c-0.69-0.26-1.28-0.45-1.76-0.58c-0.48-0.13-1.21-0.3-2.17-0.53c-0.77-0.19-1.35-0.34-1.74-0.44c-0.39-0.1-0.96-0.26-1.71-0.48
				c-0.76-0.23-1.34-0.43-1.74-0.6c-0.4-0.18-0.93-0.43-1.57-0.75c-0.65-0.32-1.14-0.64-1.5-0.97c-0.35-0.32-0.75-0.72-1.18-1.21
				c-0.44-0.48-0.76-0.99-0.99-1.52c-0.23-0.53-0.42-1.14-0.58-1.84s-0.24-1.43-0.24-2.2c0-3.22,1.09-5.71,3.28-7.49
				c2.19-1.77,5.18-2.65,8.98-2.65c3.83,0,6.82,0.97,8.96,2.9c2.14,1.93,3.21,4.59,3.21,7.97h-7.25c0-1.38-0.49-2.44-1.47-3.16
				c-0.98-0.72-2.2-1.09-3.65-1.09c-1.29,0-2.41,0.27-3.36,0.82c-0.95,0.55-1.43,1.34-1.43,2.37c0,0.48,0.12,0.91,0.36,1.28
				c0.24,0.37,0.52,0.68,0.85,0.92c0.32,0.24,0.82,0.48,1.5,0.72c0.68,0.24,1.25,0.42,1.71,0.53c0.47,0.11,1.17,0.28,2.1,0.51
				c1.03,0.26,1.8,0.46,2.32,0.6c0.51,0.14,1.25,0.39,2.22,0.72c0.97,0.34,1.71,0.67,2.24,0.99c0.53,0.32,1.15,0.75,1.86,1.28
				c0.71,0.53,1.25,1.11,1.62,1.74c0.37,0.63,0.69,1.38,0.97,2.27c0.27,0.89,0.41,1.84,0.41,2.87c0,2.35-0.59,4.36-1.78,6.04
				c-1.19,1.68-2.73,2.9-4.61,3.67S604.51,171.76,602.1,171.76z"/>
		</g>
	</g>
</g>
</svg>
